<svg width="42" height="43" viewBox="0 0 42 43" fill="none" xmlns="http://www.w3.org/2000/svg">
<path d="M37.0835 5.70378L37.0033 5.63482C36.3026 4.99554 35.5454 4.41863 34.7407 3.91088C30.7876 1.16735 26.6789 0 24.3311 0C15.1906 0 7.96152 6.25544 7.96152 14.5845C7.93695 17.9259 8.90447 21.2019 10.7458 24.012C10.2993 26.0561 8.73911 31.3068 6.38628 32.7598C3.26588 34.6955 2.07692 35.3654 2.06689 35.3703L0 36.5278L6.8729 37.1583L5.57859 43L6.92306 42.4336C7.0234 42.3942 15.597 38.6803 16.5552 29.8439C19.8486 32.1763 23.9199 33.1966 27.949 32.6992C31.9781 32.2019 35.6655 30.2239 38.2684 27.1637C40.8713 24.1034 42.1963 20.1884 41.9764 16.2072C41.7566 12.2261 40.0082 8.47467 37.0835 5.7087V5.70378ZM24.2658 1.20183C24.8186 1.21322 25.3686 1.28257 25.9063 1.40871C23.6332 1.42849 21.3903 1.92294 19.3267 2.8592C17.2632 3.79546 15.4262 5.15211 13.9377 6.83904C12.4492 8.52596 11.3433 10.5045 10.6935 12.6433C10.0437 14.7821 9.86488 17.0322 10.1689 19.2441C9.70558 17.7326 9.46898 16.163 9.46654 14.5845C9.46654 6.95487 15.8277 1.20183 24.2658 1.20183ZM7.71069 40.3599L8.71403 35.8432L4.79096 35.4836C5.41805 35.1044 6.21069 34.6217 7.19898 34.006C9.76754 32.415 11.2976 27.8342 11.9247 25.534C12.5093 26.2025 13.1577 26.8144 13.8612 27.3614C14.2587 27.8197 14.6825 28.2555 15.1304 28.6667C14.9147 35.2866 10.1388 38.9364 7.70567 40.3648L7.71069 40.3599ZM26.0869 31.4496C23.8286 31.4525 21.6006 30.9391 19.5794 29.9502C17.5581 28.9613 15.7991 27.524 14.4416 25.7521C13.0841 23.9802 12.1653 21.9223 11.7581 19.7414C11.3508 17.5604 11.4663 15.3164 12.0953 13.1869C12.7243 11.0574 13.8497 9.10086 15.3821 7.47228C16.9146 5.84369 18.8122 4.58775 20.9247 3.80388C23.0372 3.02001 25.3065 2.72974 27.553 2.95606C29.7995 3.18237 31.9615 3.91906 33.8678 5.10779C34.611 5.61727 35.3276 6.16305 36.015 6.74307C38.1426 8.70074 39.6219 11.2409 40.2611 14.0342C40.9003 16.8274 40.6699 19.7448 39.5998 22.4079C38.5297 25.071 36.6692 27.3569 34.2596 28.9692C31.8501 30.5814 29.0028 31.4456 26.0869 31.4496ZM26.0869 9.89049C24.6212 9.88952 23.1881 10.3154 21.9689 11.1142C20.7498 11.913 19.7993 13.0488 19.2377 14.3781C18.6761 15.7073 18.5286 17.1702 18.814 18.5818C19.0993 19.9933 19.8046 21.2901 20.8407 22.308C21.8767 23.3259 23.197 24.0193 24.6345 24.3004C26.072 24.5815 27.5621 24.4377 28.9163 23.8872C30.2705 23.3368 31.4281 22.4043 32.2425 21.2078C33.0569 20.0113 33.4916 18.6046 33.4916 17.1655C33.4889 15.2377 32.7081 13.3895 31.3202 12.0259C29.9323 10.6623 28.0504 9.8944 26.0869 9.89049ZM20.1722 17.1655C20.1702 16.2433 20.3927 15.334 20.8212 14.5133C21.2497 13.6926 21.8717 12.9843 22.6354 12.4475C23.3991 11.9106 24.2825 11.5607 25.2118 11.427C26.1412 11.2932 27.0897 11.3794 27.9782 11.6785C29.4832 13.3039 30.7073 15.7273 30.1003 17.6285C29.5854 19.1682 28.5149 20.4698 27.0903 21.2882C26.4413 21.6886 25.7144 21.952 24.9561 22.0614C24.1977 22.1708 23.4245 22.1238 22.6856 21.9236C21.9072 21.3879 21.2722 20.6756 20.8346 19.8472C20.397 19.0187 20.1698 18.0987 20.1722 17.1655ZM27.4615 22.7954C28.4249 22.3112 29.2808 21.6439 29.9792 20.8321C30.6777 20.0204 31.2048 19.0804 31.53 18.0669C31.8271 17.0729 31.8375 16.0175 31.5601 15.018C31.8753 15.7893 32.0174 16.6182 31.9768 17.4483C31.9362 18.2784 31.7138 19.0901 31.3248 19.8282C30.9358 20.5663 30.3894 21.2134 29.7227 21.7255C29.056 22.2375 28.2848 22.6024 27.4615 22.7954Z" fill="white"/>
</svg>
