<svg width="42" height="42" viewBox="0 0 42 42" fill="none" xmlns="http://www.w3.org/2000/svg">
<path d="M5.05688 9.11377C7.24136 9.11377 9.11377 7.30377 9.11377 5.05688C9.11377 2.80999 7.24136 1 5.05688 1C2.87241 1 1 2.80999 1 5.05688C1 7.30377 2.80999 9.11377 5.05688 9.11377ZM5.05688 2.24827C6.55481 2.24827 7.8655 3.49654 7.8655 5.05688C7.8655 6.61722 6.61722 7.8655 5.05688 7.8655C3.49654 7.8655 2.24827 6.61722 2.24827 5.05688C2.24827 3.49654 3.49654 2.24827 5.05688 2.24827Z" fill="white"/>
<path fill-rule="evenodd" clip-rule="evenodd" d="M9.61377 5.05688C9.61377 7.58489 7.5125 9.61377 5.05688 9.61377C2.53385 9.61377 0.5 7.57992 0.5 5.05688C0.5 2.52888 2.60127 0.5 5.05688 0.5C7.5125 0.5 9.61377 2.52888 9.61377 5.05688ZM7.3655 5.05688C7.3655 3.77986 6.28589 2.74827 5.05688 2.74827C3.77269 2.74827 2.74827 3.77269 2.74827 5.05688C2.74827 6.34108 3.77269 7.3655 5.05688 7.3655C6.34108 7.3655 7.3655 6.34108 7.3655 5.05688ZM9.11377 5.05688C9.11377 7.30377 7.24136 9.11377 5.05688 9.11377C2.80999 9.11377 1 7.30377 1 5.05688C1 2.80999 2.87241 1 5.05688 1C7.24136 1 9.11377 2.80999 9.11377 5.05688ZM7.8655 5.05688C7.8655 3.49654 6.55481 2.24827 5.05688 2.24827C3.49654 2.24827 2.24827 3.49654 2.24827 5.05688C2.24827 6.61722 3.49654 7.8655 5.05688 7.8655C6.61722 7.8655 7.8655 6.61722 7.8655 5.05688Z" fill="white"/>
<path d="M40.0709 16.0417C40.383 16.1665 40.7575 16.0417 40.8823 15.7296C41.0071 15.4176 40.8823 15.0431 40.5702 14.9183C29.5854 9.67552 26.8392 22.2207 19.7865 23.4065C19.7241 22.4703 19.0999 21.5965 18.1637 21.3469L12.6089 19.9114L8.8017 17.602C8.48963 17.4148 8.11515 17.5396 7.92791 17.7893C7.74067 18.0389 7.8655 18.4758 8.11515 18.6631L11.9848 21.0348C12.0472 21.0972 12.1096 21.0972 12.172 21.0972L17.7893 22.5327C18.351 22.6575 18.663 23.2193 18.5382 23.781C18.4134 24.3427 17.7893 24.6548 17.29 24.53L11.2358 22.9696C11.0486 22.9072 10.8614 22.8448 10.7365 22.72L8.73929 20.7227C8.3648 20.3482 7.67826 20.5979 7.67826 21.1596V23.7186C7.67826 23.9058 7.74067 24.0931 7.92791 24.2179L14.7934 29.9599C15.0431 30.2096 15.1679 30.5217 15.1055 30.8961L14.3565 37.8865C14.2941 38.4482 13.7324 38.8851 13.1707 38.7603C12.6089 38.6978 12.172 38.1985 12.2969 37.5744L12.921 31.3955C12.921 31.2082 12.8586 31.021 12.7338 30.8961L8.48963 27.0889C7.99032 26.652 7.30377 26.652 6.80447 27.0889C6.36757 27.4634 6.24274 28.0875 6.55481 28.5868L8.61446 32.2692C8.73929 32.5189 8.8017 32.831 8.67687 33.0806L6.67964 38.9475C6.4924 39.5092 5.93067 39.7589 5.36895 39.5716C4.80723 39.3844 4.55758 38.8227 4.6824 38.2609L6.42998 33.0806C6.4924 32.8934 6.4924 32.7061 6.36757 32.5813L3.49654 27.401C3.43413 27.3386 3.37172 27.2762 3.3093 27.2137C2.68517 26.7144 2.24827 25.9031 2.24827 25.0917V13.6076C2.24827 12.1097 3.43413 10.799 4.86964 10.7366C5.49378 10.7366 6.11792 10.9238 6.61722 11.2983C7.8655 12.2969 8.05274 12.1721 9.48825 12.9834C10.4869 13.4828 11.5479 13.7324 12.6713 13.7324L16.2913 13.6076C16.9155 13.6076 17.3524 14.1069 17.3524 14.6062C17.3524 15.1679 16.9155 15.6672 16.3537 15.6672C16.3537 15.6672 10.8613 15.7921 10.7989 15.7921C10.4869 15.7921 10.1748 16.1041 10.1748 16.4162C10.1748 16.7283 10.4869 17.0403 10.7989 17.0403C10.7989 17.0403 10.7989 17.0403 16.3537 16.9155C17.3524 16.9155 18.1637 16.2289 18.4758 15.4176C20.8475 15.6672 22.6575 17.5396 24.093 19.2872C24.3427 19.5369 24.7172 19.5993 24.9668 19.3496C25.2165 19.1 25.2789 18.7255 25.0292 18.4758C23.4065 16.541 21.3468 14.419 18.5382 14.1693C18.2886 13.1083 17.4148 12.3593 16.2289 12.3593L12.6089 12.4841C11.7351 12.4841 10.8613 12.2969 10.05 11.9224C8.55205 11.111 8.48963 11.2983 7.36619 10.3621C6.61722 9.80035 5.74343 9.48828 4.80723 9.48828C2.68517 9.55069 1 11.3607 1 13.6076V25.0293C1 26.2151 1.56172 27.3386 2.43551 28.0875L5.18171 32.9558L3.49654 37.8865C3.12206 39.0723 3.7462 40.383 4.93206 40.8199C6.18033 41.1944 7.4286 40.5078 7.80308 39.3844L9.80032 33.5175C9.98756 32.8934 9.92515 32.2068 9.61308 31.6451L7.55343 27.9627L11.6103 31.6451L11.0486 37.4496C10.8614 38.8227 11.9224 40.0709 13.2955 40.0709C14.4189 40.0709 15.4175 39.1972 15.5424 38.0737L16.2913 31.0834C16.4162 30.3344 16.1041 29.5855 15.5424 29.0861L8.92653 23.4689V22.6575L9.86273 23.5938C10.1748 23.9058 10.4869 24.0931 10.9238 24.2179L16.9779 25.7782C17.9765 26.0279 19.0375 25.591 19.5368 24.6548C27.713 23.9058 29.7103 11.0486 40.0709 16.0417Z" fill="white"/>
<path fill-rule="evenodd" clip-rule="evenodd" d="M39.8693 16.4996L39.8538 16.4921C37.3521 15.2865 35.4122 15.1818 33.7809 15.6559C32.1283 16.1361 30.7237 17.2286 29.3296 18.557C28.8534 19.0107 28.3721 19.4994 27.8826 19.9963C26.9743 20.9183 26.0382 21.8687 25.0552 22.6771C23.5746 23.8947 21.9007 24.8733 19.8373 25.1255C19.1821 26.108 17.9825 26.5448 16.8566 26.2633L16.8531 26.2624L11.305 24.8325L15.8746 28.7123C16.5441 29.3075 16.9369 30.2159 16.787 31.1504L16.0393 38.1289C15.8858 39.5107 14.6685 40.5709 13.2955 40.5709C11.6124 40.5709 10.3316 39.0511 10.5518 37.3921L11.0885 31.8467L9.4843 30.3906L10.0502 31.4023C10.4314 32.0885 10.503 32.9153 10.2792 33.6612L10.2766 33.67L8.27742 39.5425C8.27726 39.543 8.27709 39.5435 8.27693 39.544C7.81548 40.9257 6.2922 41.75 4.78838 41.2988L4.77364 41.2944L4.7592 41.2891C3.31924 40.7586 2.56603 39.1727 3.01975 37.7359L3.02328 37.7247L4.63608 33.0062L2.04199 28.4076C1.10433 27.5712 0.5 26.3401 0.5 25.0293V13.6076C0.5 11.1124 2.37858 9.0595 4.79253 8.9885L4.79988 8.98828H4.80723C5.85913 8.98828 6.83689 9.3401 7.66619 9.96207L7.67644 9.96976L7.68628 9.97796C8.22719 10.4287 8.4914 10.5919 8.79126 10.7418C8.88109 10.7868 8.98345 10.8345 9.10271 10.8901C9.3818 11.0203 9.75344 11.1937 10.2736 11.4749C11.0119 11.8132 11.806 11.9829 12.6005 11.9841L16.2203 11.8593H16.2289C17.5217 11.8593 18.5231 12.6131 18.9223 13.7103C21.773 14.1119 23.8453 16.2877 25.4001 18.1399C25.6505 18.4008 25.7202 18.7094 25.6782 18.9979C25.8551 18.8219 26.0326 18.6438 26.2114 18.4643L26.2281 18.4475C26.9193 17.7539 27.6287 17.0421 28.3706 16.3789C29.8656 15.0425 31.5334 13.8654 33.564 13.3797C35.6051 12.8916 37.9498 13.1162 40.773 14.461C41.3721 14.7121 41.5533 15.3983 41.3465 15.9153C41.1015 16.528 40.4071 16.7147 39.8852 16.5059L39.8693 16.4996ZM40.5702 14.9183C33.7126 11.6453 30.0658 15.3048 26.5775 18.8053C24.6104 20.7793 22.6936 22.7028 20.2799 23.3037C20.1177 23.3441 19.9533 23.3785 19.7865 23.4065C19.776 23.2487 19.7495 23.0926 19.7082 22.941C19.5048 22.1934 18.9421 21.5544 18.1637 21.3469L12.6089 19.9114L8.8017 17.602C8.48963 17.4148 8.11515 17.5396 7.92791 17.7893C7.74067 18.0389 7.8655 18.4758 8.11515 18.6631L11.9848 21.0348C12.0472 21.0972 12.1096 21.0972 12.172 21.0972L17.7893 22.5327C18.351 22.6575 18.663 23.2193 18.5382 23.781C18.4134 24.3427 17.7893 24.6548 17.29 24.53L11.2358 22.9696C11.0486 22.9072 10.8613 22.8448 10.7365 22.72L8.73929 20.7227C8.3648 20.3482 7.67826 20.5979 7.67826 21.1596V23.7186C7.67826 23.9058 7.74067 24.0931 7.92791 24.2179L14.7934 29.9599C15.0431 30.2096 15.1679 30.5217 15.1055 30.8961L14.3565 37.8865C14.2941 38.4482 13.7324 38.8851 13.1707 38.7603C12.6089 38.6978 12.172 38.1985 12.2969 37.5744L12.921 31.3955C12.921 31.2082 12.8586 31.021 12.7338 30.8961L8.48963 27.0889C7.99032 26.652 7.30377 26.652 6.80447 27.0889C6.36757 27.4634 6.24274 28.0875 6.55481 28.5868L8.61446 32.2692C8.73929 32.5189 8.8017 32.831 8.67687 33.0806L6.67964 38.9475C6.4924 39.5092 5.93067 39.7589 5.36895 39.5716C4.80723 39.3844 4.55758 38.8227 4.6824 38.2609L6.42998 33.0806C6.4924 32.8934 6.4924 32.7061 6.36757 32.5813L3.49654 27.401L3.3093 27.2137C2.68517 26.7144 2.24827 25.9031 2.24827 25.0917V13.6076C2.24827 12.1097 3.43413 10.799 4.86964 10.7366C5.49378 10.7366 6.11792 10.9238 6.61722 11.2983C7.42516 11.9446 7.78861 12.1203 8.33372 12.3839C8.63081 12.5275 8.98187 12.6972 9.48825 12.9834C10.4869 13.4828 11.5479 13.7324 12.6713 13.7324L16.2913 13.6076C16.9155 13.6076 17.3524 14.1069 17.3524 14.6062C17.3524 15.1679 16.9155 15.6672 16.3537 15.6672L16.3424 15.1674L16.3537 15.1671C16.6009 15.1671 16.8524 14.9318 16.8524 14.6062C16.8524 14.3846 16.6423 14.1115 16.2987 14.1076L12.68 14.2324H12.6713C11.4708 14.2324 10.3331 13.9649 9.26464 13.4307L9.25328 13.425L9.24222 13.4187C8.75012 13.1406 8.42302 12.9825 8.1306 12.8412C8.00249 12.7793 7.88104 12.7206 7.75529 12.6565C7.33998 12.4446 6.95402 12.2075 6.31134 11.6939C5.91099 11.3958 5.40164 11.2388 4.88066 11.2366C3.73994 11.2925 2.74827 12.3578 2.74827 13.6076V25.0917C2.74827 25.7338 3.10186 26.4075 3.62165 26.8233L3.64328 26.8406L3.8998 27.0971L6.77772 32.2899C7.04125 32.6085 6.98259 33.0039 6.90433 33.2387L6.90375 33.2404L5.16563 38.3927C5.09798 38.7395 5.25706 39.0073 5.52707 39.0973C5.85131 39.2054 6.11333 39.0653 6.2053 38.7894L6.2063 38.7864L8.21448 32.8874L8.22966 32.857C8.25102 32.8143 8.26221 32.6878 8.17185 32.5022L6.12385 28.8406C5.6796 28.1175 5.87265 27.2305 6.47724 26.7109C7.16494 26.1108 8.13174 26.1114 8.81888 26.7126L8.82353 26.7167L13.0777 30.533L13.0873 30.5426C13.3271 30.7824 13.421 31.109 13.421 31.3955V31.4206L12.7919 37.6487L12.7872 37.6725C12.7255 37.9807 12.9261 38.23 13.2259 38.2633L13.2527 38.2663L13.2791 38.2722C13.5283 38.3275 13.8269 38.1205 13.8595 37.8321C13.8594 37.8324 13.8595 37.8318 13.8595 37.8321L14.6099 30.8284L14.6123 30.8139C14.6439 30.6241 14.5932 30.4732 14.4538 30.3277L7.62502 24.6164C7.28091 24.3733 7.17826 24.0139 7.17826 23.7186V21.1596C7.17826 20.1206 8.42608 19.7024 9.09284 20.3692L11.0901 22.3664C11.1146 22.3909 11.1729 22.421 11.3777 22.4899L17.4112 24.0449C17.4117 24.045 17.4122 24.0451 17.4127 24.0452C17.6747 24.1098 17.9942 23.9244 18.0501 23.6725C18.1227 23.3462 17.94 23.0784 17.6808 23.0208L17.6731 23.0191L12.1051 21.5962C12.0082 21.5914 11.8432 21.5664 11.6867 21.4385L7.83389 19.0771L7.81515 19.0631C7.5816 18.8879 7.43255 18.6227 7.37129 18.3654C7.31067 18.1108 7.31657 17.7711 7.52791 17.4893C7.84034 17.0727 8.48865 16.8311 9.05895 17.1733L9.06101 17.1745L12.8053 19.4457L18.2926 20.8637C19.2643 21.1229 19.9449 21.9094 20.1906 22.8106C21.6131 22.4484 22.8774 21.5828 24.1327 20.4687C24.3012 20.3192 24.4688 20.1659 24.636 20.0094C24.295 20.0211 23.9611 19.8623 23.7395 19.6408L23.7222 19.6235L23.7067 19.6046C22.343 17.9445 20.754 16.3264 18.769 15.9645C18.313 16.7731 17.4339 17.4132 16.3596 17.4155L11.2989 17.5292V17.5403H10.7989C10.4803 17.5403 10.2035 17.386 10.0163 17.1988C9.82909 17.0116 9.6748 16.7348 9.6748 16.4162C9.6748 16.0975 9.82909 15.8207 10.0163 15.6335C10.2035 15.4463 10.4803 15.2921 10.7989 15.2921C10.7974 15.2921 10.8011 15.292 10.8118 15.2918C10.8217 15.2916 10.8377 15.2913 10.8611 15.2908L16.3424 15.1674L16.3537 15.6672C16.3537 15.6672 10.8614 15.7921 10.7989 15.7921C10.4869 15.7921 10.1748 16.1041 10.1748 16.4162C10.1748 16.625 10.3146 16.8339 10.5006 16.9492C10.5925 17.0062 10.6957 17.0403 10.7989 17.0403L16.3537 16.9155C17.3524 16.9155 18.1637 16.2289 18.4758 15.4176C20.8475 15.6672 22.6575 17.5396 24.093 19.2872C24.3427 19.5369 24.7172 19.5993 24.9668 19.3496C25.2165 19.1 25.2789 18.7255 25.0292 18.4758C23.4065 16.541 21.3468 14.419 18.5382 14.1693C18.2886 13.1083 17.4148 12.3593 16.2289 12.3593L12.6089 12.4841C11.7351 12.4841 10.8613 12.2969 10.05 11.9224C9.53484 11.6434 9.18948 11.4825 8.91235 11.3533C8.38363 11.107 8.10328 10.9763 7.36619 10.3621C6.61722 9.80035 5.74343 9.48828 4.80723 9.48828C2.68517 9.55069 1 11.3607 1 13.6076V25.0293C1 26.2151 1.56172 27.3386 2.43551 28.0875L5.18171 32.9558L3.49654 37.8865C3.12206 39.0723 3.7462 40.383 4.93206 40.8199C6.18033 41.1944 7.4286 40.5078 7.80308 39.3844L9.80032 33.5175C9.98756 32.8934 9.92515 32.2068 9.61308 31.6451L7.55343 27.9627L11.6103 31.6451L11.0486 37.4496C10.8613 38.8227 11.9224 40.0709 13.2955 40.0709C14.4189 40.0709 15.4175 39.1972 15.5424 38.0737L16.2913 31.0834C16.4162 30.3344 16.1041 29.5855 15.5424 29.0862L8.92653 23.4689V22.6576L9.86273 23.5938C10.1748 23.9058 10.4869 24.0931 10.9238 24.2179L16.9779 25.7782C17.9765 26.0279 19.0375 25.591 19.5368 24.6548C22.8973 24.347 25.214 21.9937 27.4966 19.675C30.7676 16.3524 33.9686 13.1008 40.0709 16.0417C40.383 16.1665 40.7575 16.0417 40.8823 15.7296C41.0071 15.4176 40.8823 15.0431 40.5702 14.9183Z" fill="white"/>
<path d="M39.883 22.969C35.7013 27.4628 29.9592 23.2811 27.6499 21.2214C27.4003 20.9718 27.0258 21.0342 26.7761 21.2838C26.5265 21.5335 26.5889 21.908 26.8385 22.1576C31.2699 26.0897 36.7623 28.1493 40.8192 23.8428C41.0688 23.5931 41.0688 23.2187 40.7568 22.969C40.5071 22.7194 40.1326 22.7194 39.883 22.969Z" fill="white"/>
<path fill-rule="evenodd" clip-rule="evenodd" d="M39.5245 22.6233L39.5309 22.6169C39.9692 22.1786 40.6464 22.1721 41.0918 22.5974C41.3344 22.8 41.4842 23.0767 41.4995 23.3824C41.5149 23.6906 41.3909 23.9781 41.1801 24.1919C39.0263 26.4753 36.4635 27.0797 33.8763 26.5822C31.3197 26.0905 28.7589 24.5303 26.5081 22.5331L26.497 22.5232L26.4864 22.5127C26.1112 22.1374 25.9161 21.4397 26.424 20.9318C26.7965 20.5593 27.4865 20.3644 27.9934 20.8579C29.1324 21.8725 31.079 23.3724 33.2224 24.0794C34.2915 24.432 35.387 24.5798 36.4457 24.3907C37.4963 24.2029 38.5432 23.6779 39.5184 22.6299L39.5245 22.6233ZM27.6514 21.2229C27.4017 20.9732 27.0272 21.0357 26.7776 21.2853C26.5279 21.535 26.5903 21.9095 26.84 22.1591C31.2714 26.0912 36.7638 28.1508 40.8207 23.8443C41.0703 23.5946 41.0703 23.2201 40.7582 22.9705C40.5086 22.7208 40.1341 22.7208 39.8844 22.9705C35.7027 27.4643 29.9607 23.2825 27.6514 21.2229Z" fill="white"/>
</svg>
