<svg width="41" height="35" viewBox="0 0 41 35" fill="none" xmlns="http://www.w3.org/2000/svg">
<path d="M39 18C40 15.4 39.4 13.8 38.7 12.9C37.7 11.6 35.9 10.9 33.6 11C33.4 10.3 33.1 9.3 32.3 8.6L32.2 8.5C32.3 7.1 32.4 3.5 30.6 1.5C29.7 0.5 28.6 0 27.2 0H11.3C11.3 0 11.3 0 11.2 0C11.2 0 11.2 0 11.1 0C2.9 1 3 6.5 3.1 13.3H1C0.4 13.3 0 13.7 0 14.3V33.5C0 34.1 0.4 34.5 1 34.5H13C13.6 34.5 14 34.1 14 33.5V14.4C14 13.8 13.6 13.4 13 13.4H10C10 13 10 12.6 10 12.2C10 9.7 9.9 7.7 10.6 7C10.9 6.7 11.5 6.5 12.3 6.5H22.6C23.7 6.5 25 6.5 25.3 6.9C25.6 7.2 25.6 8.2 25.6 9.6C25.2 10.3 25 11 24.8 11.6C24.8 11.7 24.8 11.7 24.7 11.8C24.6 11.8 24.6 11.8 24.5 11.9H24.4C23.4 12.4 22.6 13.3 22.2 14.4C20.8 14.5 19.6 15.3 18.9 16.4C18.7 17 18.5 17.7 18.5 18.5C18.5 19.8 19.2 21.1 20.3 21.8C20.3 21.8 20.4 21.9 20.5 21.9C20.6 22 20.7 22 20.9 22.1C21.3 22.3 21.5 22.6 21.5 23C21.5 23 21.5 23.1 21.5 23.2C21.5 23.3 21.5 23.4 21.4 23.6C21.3 23.7 21.1 24 20.8 24.2C20.6 24.3 20.5 24.4 20.4 24.5C20.3 24.6 20.2 24.6 20.2 24.6C19.3 25.3 19.2 26.5 19.2 27.3C19.2 30.3 22.5 32.8 26.5 32.8C28.9 32.8 31.2 31.9 32.5 30.4C33.1 29.7 33.5 28.9 33.7 28C37.6 26.5 39.8 24.7 40.3 22.6C40.9 20.5 39.7 18.8 39 18ZM12 32.5H2V15.4H4.2H12V32.5ZM22.6 4.5H12.3C10.9 4.5 9.9 4.8 9.2 5.6C7.9 6.9 7.9 9.2 8 12.3C8 12.7 8 13.1 8 13.4H5.2C5 6.1 5.2 2.9 11.4 2.1H27.2C28 2.1 28.6 2.4 29.1 2.9C30.1 4 30.3 6.2 30.3 7.7C29.7 7.5 29.2 7.5 28.5 7.5C28.2 7.5 27.9 7.6 27.6 7.7C27.5 6.7 27.3 6 26.7 5.4C25.9 4.6 24.7 4.5 22.6 4.5ZM31.1 29C30.1 30.1 28.4 30.7 26.5 30.7C23.6 30.7 21.2 29.1 21.2 27.2C21.2 26.6 21.3 26.2 21.5 26L21.6 25.9C21.7 25.8 21.9 25.7 22 25.6C22.5 25.2 23 24.8 23.2 24.2C23.4 23.8 23.4 23.5 23.4 23C23.4 22.8 23.4 22.6 23.3 22.4C23.1 21.6 22.6 20.8 21.8 20.3C21.6 20.2 21.4 20.1 21.2 20C20.6 19.6 20.3 19 20.3 18.4C20.3 18 20.4 17.7 20.6 17.3C21.1 16.6 21.9 16.1 22.9 16.2C23.4 16.3 23.9 15.9 24 15.3C24.1 14.5 24.6 13.9 25.2 13.5H25.3C25.3 13.5 25.4 13.5 25.5 13.4C25.5 13.8 25.5 14.3 25.5 14.8C25.5 15.3 26 15.8 26.5 15.8C27.1 15.8 27.5 15.3 27.5 14.8C27.5 14.4 27.5 14 27.5 13.6C28.1 14 28.6 14.6 28.7 15.3C28.8 15.8 29.3 16.2 29.8 16.2C29.9 16.2 29.9 16.2 30 16.2C31.3 16.2 32.4 17.2 32.4 18.3C32.4 18.9 32.1 19.5 31.5 20C31.3 20.1 31.2 20.2 31 20.3C31 20.3 30.9 20.3 30.9 20.4C30.2 20.9 29.7 21.6 29.5 22.3C29.4 22.5 29.4 22.8 29.4 23C29.4 23.4 29.5 23.8 29.6 24.1C29.9 24.8 30.4 25.2 30.9 25.5C31.1 25.6 31.2 25.7 31.4 25.9C31.6 26 31.7 26.4 31.7 27C31.8 28 31.4 28.6 31.1 29ZM38.4 22C38.2 22.9 37.1 24.3 33.6 25.8C33.5 25.3 33.2 24.9 32.8 24.5C32.6 24.3 32.4 24.2 32.2 24C31.9 23.8 31.6 23.6 31.5 23.4C31.5 23.3 31.4 23.2 31.4 23.1C31.4 22.6 31.8 22.3 32.1 22.1C32.2 22 32.3 22 32.4 21.9C32.4 21.9 32.5 21.9 32.5 21.8C33.6 21 34.3 19.8 34.3 18.5C34.3 16.4 32.6 14.6 30.4 14.4C30.3 14.2 30.2 14 30.1 13.8C30.1 13.7 30 13.7 30 13.6C29.9 13.5 29.9 13.4 29.8 13.2C29.8 13.1 29.7 13.1 29.6 13C29.5 12.9 29.4 12.8 29.3 12.7C29.2 12.6 29.2 12.6 29.1 12.5C29 12.4 28.9 12.3 28.8 12.3C28.7 12.2 28.7 12.2 28.6 12.1C28.5 12 28.4 12 28.3 11.9C28.2 11.9 28.1 11.8 28.1 11.8C28 11.7 27.9 11.7 27.8 11.7C27.7 11.7 27.6 11.6 27.5 11.6H27.4C27.4 11.2 27.4 10.9 27.4 10.5C27.4 10.4 27.4 10.2 27.4 10.1C27.7 9.7 28 9.5 28.5 9.5C29.5 9.4 30.2 9.6 30.7 10C31.5 10.7 31.5 12 31.5 12C31.5 12.3 31.6 12.6 31.8 12.8C32 13 32.3 13.1 32.6 13.1C34.6 12.8 36.2 13.2 36.8 14.1C37.4 14.9 37.3 16.2 36.6 17.8C36.5 18.1 36.5 18.4 36.7 18.7C36.8 18.8 36.9 18.9 37 19.1C37.8 19.6 38.8 20.8 38.4 22Z" fill="white"/>
<path d="M27.1992 24H25.6992C25.0992 24 24.6992 24.4 24.6992 25C24.6992 25.6 25.0992 26 25.6992 26H27.1992C27.7992 26 28.1992 25.6 28.1992 25C28.1992 24.4 27.6992 24 27.1992 24Z" fill="white"/>
<path d="M25.9992 19.5008C26.0992 19.6008 26.1992 19.7008 26.2992 19.7008C26.3992 19.7008 26.5992 19.8008 26.6992 19.8008C26.7992 19.8008 26.9992 19.8008 27.0992 19.7008C27.1992 19.6008 27.2992 19.6008 27.3992 19.5008C27.4992 19.4008 27.5992 19.3008 27.5992 19.2008C27.5992 19.1008 27.6992 18.9008 27.6992 18.8008C27.6992 18.7008 27.6992 18.5008 27.5992 18.4008C27.4992 18.3008 27.4992 18.2008 27.3992 18.1008C26.9992 17.7008 26.3992 17.7008 25.9992 18.1008C25.8992 18.2008 25.7992 18.3008 25.7992 18.4008C25.7992 18.5008 25.6992 18.7008 25.6992 18.8008C25.6992 18.9008 25.6992 19.1008 25.7992 19.2008C25.7992 19.3008 25.8992 19.4008 25.9992 19.5008Z" fill="white"/>
<path d="M3.5 19.3008V23.3008C3.5 23.9008 3.9 24.3008 4.5 24.3008H9.3C9.9 24.3008 10.3 23.9008 10.3 23.3008V19.3008C10.3 18.7008 9.9 18.3008 9.3 18.3008H4.5C3.9 18.3008 3.5 18.8008 3.5 19.3008ZM5.5 20.3008H8.3V22.3008H5.5V20.3008Z" fill="white"/>
<path d="M5.1 26.1992H4.5C3.9 26.1992 3.5 26.5992 3.5 27.1992C3.5 27.7992 3.9 28.1992 4.5 28.1992H5.2C5.8 28.1992 6.2 27.7992 6.2 27.1992C6.2 26.5992 5.7 26.1992 5.1 26.1992Z" fill="white"/>
<path d="M9.2 26.1992H8.5C7.9 26.1992 7.5 26.5992 7.5 27.1992C7.5 27.7992 7.9 28.1992 8.5 28.1992H9.2C9.8 28.1992 10.2 27.7992 10.2 27.1992C10.2 26.5992 9.8 26.1992 9.2 26.1992Z" fill="white"/>
<path d="M7.89922 29.6009C7.79922 29.5009 7.69922 29.4009 7.59922 29.4009C7.19922 29.2009 6.79922 29.3009 6.49922 29.6009C6.39922 29.7009 6.29922 29.8009 6.29922 29.9009C6.29922 30.0009 6.19922 30.2009 6.19922 30.3009C6.19922 30.4009 6.19922 30.6009 6.29922 30.7009C6.39922 30.8009 6.39922 30.9009 6.49922 31.0009C6.59922 31.1009 6.69922 31.2009 6.79922 31.2009C6.89922 31.2009 7.09922 31.3009 7.19922 31.3009C7.29922 31.3009 7.49922 31.3009 7.59922 31.2009C7.69922 31.2009 7.79922 31.1009 7.89922 31.0009C7.99922 30.9009 8.09922 30.8009 8.09922 30.7009C8.09922 30.6009 8.19922 30.4009 8.19922 30.3009C8.19922 30.2009 8.19922 30.0009 8.09922 29.9009C7.99922 29.8009 7.99922 29.7009 7.89922 29.6009Z" fill="white"/>
</svg>
