<svg width="35" height="44" viewBox="0 0 35 44" fill="none" xmlns="http://www.w3.org/2000/svg">
<path d="M12.1076 11.9727C12.1076 13.6673 10.7326 15.0412 9.03724 15.0412C7.34228 15.0412 5.96875 13.6677 5.96875 11.9727C5.96875 10.2774 7.34263 8.90234 9.03724 8.90234C10.7322 8.90234 12.1076 10.2778 12.1076 11.9727Z" stroke="white"/>
<path d="M9.03716 15.7696C6.94367 15.7696 5.23828 14.0659 5.23828 11.9708C5.23828 9.87726 6.94206 8.17188 9.03716 8.17188C11.1307 8.17188 12.836 9.87565 12.836 11.9708C12.836 14.0642 11.1323 15.7696 9.03716 15.7696ZM9.03716 8.6309C7.19842 8.6309 5.69527 10.1271 5.69527 11.9728C5.69527 13.8179 7.19209 15.3147 9.03716 15.3147C10.8822 15.3147 12.3791 13.8179 12.3791 11.9728C12.3791 10.1277 10.8822 8.6309 9.03716 8.6309Z" stroke="white"/>
<mask id="path-3-inside-1_1_141" fill="white">
<path d="M12.3843 10.7425C12.5342 10.456 12.9724 9.54348 12.7429 8.40145C12.3976 6.68648 10.8591 5.94468 10.6845 5.8612C9.35841 5.23513 7.54286 4.54462 5.31358 4.17653C4.42574 4.02666 3.58909 3.94888 2.82267 3.91853C2.11317 3.89007 1.58006 3.26784 1.63698 2.56397C1.69579 1.91328 2.23837 1.40863 2.89474 1.4181C4.20564 1.43707 5.66831 1.55849 7.23155 1.85064C12.5641 2.84095 16.4402 5.30908 18.6786 7.02779C20.1014 8.2078 21.9568 10.0138 23.6377 12.5692C25.6239 15.5894 26.5801 18.4559 27.062 20.4116L16.9505 25.1222L15.5182 21.106C15.3 20.4932 14.5412 20.2751 14.0328 20.6791L12.4354 21.9312C11.4394 22.7128 11.3275 24.1755 12.1925 25.0975L13.382 26.3705C13.9455 26.9719 13.9303 27.9204 13.3479 28.5028C12.8471 29.0036 12.0654 29.0947 11.4584 28.7267C9.79647 27.7117 8.14221 26.6911 6.48033 25.6761C5.48054 25.0634 5.33446 23.65 6.20904 22.8741C7.55029 21.6789 9.03005 20.0322 10.2309 17.8373C10.91 16.589 11.373 15.3995 11.6936 14.3447"/>
</mask>
<path d="M12.7429 8.40145L13.7233 8.2044L13.7232 8.20408L12.7429 8.40145ZM10.6845 5.8612L11.116 4.95906L11.1114 4.95691L10.6845 5.8612ZM5.31358 4.17653L5.14713 5.16259L5.15067 5.16318L5.31358 4.17653ZM2.82267 3.91853L2.7826 4.91772L2.7831 4.91774L2.82267 3.91853ZM1.63698 2.56397L0.640993 2.47395L0.640232 2.48337L1.63698 2.56397ZM2.89474 1.4181L2.90921 0.418205L2.90917 0.418204L2.89474 1.4181ZM7.23155 1.85064L7.04784 2.83362L7.04896 2.83383L7.23155 1.85064ZM18.6786 7.02779L19.317 6.25806L19.3025 6.24606L19.2876 6.23463L18.6786 7.02779ZM23.6377 12.5692L24.4732 12.0197L24.4731 12.0196L23.6377 12.5692ZM27.062 20.4116L27.4843 21.3181L28.2297 20.9709L28.0329 20.1724L27.062 20.4116ZM16.9505 25.1222L16.0086 25.4581L16.3775 26.4923L17.3728 26.0286L16.9505 25.1222ZM15.5182 21.106L14.5761 21.4414L14.5763 21.4419L15.5182 21.106ZM14.0328 20.6791L14.6497 21.4662L14.6549 21.462L14.0328 20.6791ZM12.4354 21.9312L11.8185 21.1442L11.818 21.1445L12.4354 21.9312ZM12.1925 25.0975L12.9232 24.4147L12.9218 24.4133L12.1925 25.0975ZM13.382 26.3705L12.6514 27.0532L12.6523 27.0542L13.382 26.3705ZM13.3479 28.5028L12.6408 27.7957L12.6408 27.7957L13.3479 28.5028ZM11.4584 28.7267L10.9371 29.5801L10.9399 29.5818L11.4584 28.7267ZM6.48033 25.6761L5.95777 26.5287L5.95912 26.5296L6.48033 25.6761ZM6.20904 22.8741L6.87268 23.6222L6.87432 23.6207L6.20904 22.8741ZM10.2309 17.8373L11.1082 18.3173L11.1093 18.3152L10.2309 17.8373ZM13.2704 11.206C13.4531 10.8568 14.0215 9.68815 13.7233 8.2044L11.7625 8.59849C11.9233 9.39881 11.6153 10.0552 11.4983 10.2789L13.2704 11.206ZM13.7232 8.20408C13.2747 5.97652 11.3087 5.05127 11.116 4.95907L10.253 6.76332C10.4094 6.83809 11.5205 7.39644 11.7626 8.59882L13.7232 8.20408ZM11.1114 4.95691C9.72331 4.30156 7.81818 3.57654 5.47649 3.18989L5.15067 5.16318C7.26754 5.5127 8.99351 6.1687 10.2576 6.76548L11.1114 4.95691ZM5.48003 3.19048C4.54657 3.03291 3.66733 2.9512 2.86225 2.91931L2.7831 4.91774C3.51086 4.94657 4.30491 5.02042 5.14713 5.16258L5.48003 3.19048ZM2.86275 2.91933C2.73882 2.91436 2.62115 2.80002 2.63372 2.64457L0.640232 2.48337C0.538964 3.73566 1.48752 4.86578 2.7826 4.91772L2.86275 2.91933ZM2.63292 2.65398C2.64612 2.50794 2.76292 2.4163 2.88032 2.418L2.90917 0.418204C1.71382 0.400957 0.745456 1.31862 0.641038 2.47396L2.63292 2.65398ZM2.88027 2.418C4.1404 2.43623 5.54605 2.55295 7.04784 2.83362L7.41526 0.867659C5.79057 0.56402 4.27088 0.43791 2.90921 0.418205L2.88027 2.418ZM7.04896 2.83383C12.173 3.78541 15.9046 6.15866 18.0696 7.82095L19.2876 6.23463C16.9757 4.45951 12.9552 1.89649 7.41414 0.86745L7.04896 2.83383ZM18.0402 7.79752C19.4062 8.9304 21.1881 10.6648 22.8022 13.1187L24.4731 12.0196C22.7255 9.36282 20.7966 7.4852 19.317 6.25806L18.0402 7.79752ZM22.8022 13.1187C24.7098 16.0193 25.6283 18.7727 26.091 20.6509L28.0329 20.1724C27.532 18.1391 26.5381 15.1595 24.4732 12.0197L22.8022 13.1187ZM26.6397 19.5052L16.5282 24.2157L17.3728 26.0286L27.4843 21.3181L26.6397 19.5052ZM17.8924 24.7863L16.4601 20.7701L14.5763 21.4419L16.0086 25.4581L17.8924 24.7863ZM16.4603 20.7706C16.013 19.5144 14.4582 19.0637 13.4106 19.8963L14.6549 21.462C14.6507 21.4654 14.641 21.4706 14.6291 21.4728C14.6192 21.4746 14.6123 21.4735 14.6081 21.4724C14.604 21.4712 14.5979 21.4685 14.591 21.4622C14.5826 21.4545 14.5777 21.4457 14.5761 21.4414L16.4603 20.7706ZM13.4158 19.8921L11.8185 21.1442L13.0523 22.7183L14.6497 21.4662L13.4158 19.8921ZM11.818 21.1445C10.3611 22.2879 10.1958 24.4308 11.4633 25.7817L12.9218 24.4133C12.4592 23.9202 12.5177 23.1378 13.0527 22.7179L11.818 21.1445ZM11.4619 25.7802L12.6514 27.0532L14.1127 25.6877L12.9232 24.4148L11.4619 25.7802ZM12.6523 27.0542C12.8471 27.2621 12.8413 27.5952 12.6408 27.7957L14.055 29.2099C15.0193 28.2456 15.0438 26.6816 14.1118 25.6867L12.6523 27.0542ZM12.6408 27.7957C12.469 27.9675 12.1941 28.0033 11.9768 27.8716L10.9399 29.5818C11.9368 30.1862 13.2251 30.0398 14.055 29.2099L12.6408 27.7957ZM11.9796 27.8732C11.1497 27.3665 10.3217 26.8582 9.49249 26.3492C8.66361 25.8404 7.8336 25.3309 7.00153 24.8227L5.95912 26.5296C6.78893 27.0363 7.617 27.5446 8.44619 28.0536C9.27507 28.5624 10.1051 29.0719 10.9372 29.5801L11.9796 27.8732ZM7.00288 24.8235C6.55493 24.549 6.51836 23.9365 6.87268 23.6222L5.5454 22.1261C4.15055 23.3635 4.40616 25.5778 5.95777 26.5287L7.00288 24.8235ZM6.87432 23.6207C8.28303 22.3654 9.84198 20.6316 11.1082 18.3173L9.35361 17.3573C8.21812 19.4328 6.81755 20.9925 5.54376 22.1275L6.87432 23.6207ZM11.1093 18.3152C11.8249 17 12.3127 15.7466 12.6504 14.6355L10.7368 14.0539C10.4333 15.0524 9.99522 16.178 9.35249 17.3594L11.1093 18.3152Z" fill="white" mask="url(#path-3-inside-1_1_141)"/>
<path d="M12.4694 29.1949C12.8537 29.1512 13.226 28.9786 13.5182 28.6865C14.1966 28.008 14.2158 26.9362 13.5596 26.2341L13.5595 26.2341L12.3703 24.9614C12.3702 24.9613 12.3702 24.9613 12.3701 24.9612C12.3701 24.9612 12.3701 24.9612 12.37 24.9611C11.9951 24.5603 11.8193 24.0374 11.8572 23.5012L12.356 23.5365L11.8572 23.5012C11.8957 22.9568 12.1611 22.4636 12.585 22.1291L12.5863 22.128L14.1818 20.8774C14.4485 20.6651 14.7344 20.7269 14.8126 20.7465L14.8248 20.7495L14.8369 20.7532C14.96 20.7907 15.2012 20.9019 15.3105 21.1995L15.3122 21.204L15.3122 21.204L16.7445 25.2201L16.7465 25.2258L16.7465 25.2258C16.7663 25.2837 16.8096 25.3294 16.8654 25.3523L16.8772 25.3571L16.8771 25.3573C16.9308 25.3809 16.9935 25.3803 17.0495 25.3537L17.0526 25.3522L27.1641 20.6417L27.1671 20.6403C27.2595 20.598 27.3153 20.4907 27.2882 20.3798C26.5865 17.555 25.4254 14.8927 23.8293 12.4688L23.8293 12.4687C22.4488 10.3714 20.7657 8.49219 18.8102 6.86267C15.3113 4.17285 11.4329 2.42177 7.27274 1.64629L7.27246 1.64623C5.84122 1.37857 4.3682 1.23147 2.9023 1.20704C2.13728 1.20901 1.47735 1.79908 1.40834 2.56373L1.40825 2.56471C1.37171 2.96098 1.50626 3.36946 1.77083 3.66951C2.0404 3.97445 2.40766 4.14807 2.81242 4.16682C3.63858 4.20185 4.46478 4.28739 5.27567 4.42157L5.27641 4.42169C7.10441 4.727 8.89045 5.2886 10.5863 6.08848C10.6981 6.13907 11.0859 6.3341 11.49 6.70238C11.9027 7.07853 12.3544 7.65626 12.5174 8.4633C12.7207 9.45403 12.3902 10.2662 12.1816 10.6549L11.741 10.4184M12.4694 29.1949L12.0326 25.2689C11.5793 24.7824 11.3461 24.1199 11.3993 23.4592L11.3993 23.4581C11.4511 22.7957 11.7816 22.1755 12.302 21.7676L12.302 21.7676L13.8994 20.5155L13.9018 20.5136C14.1954 20.2806 14.5907 20.2041 14.9588 20.3102C15.3234 20.4154 15.6173 20.6932 15.7437 21.0465C15.7437 21.0467 15.7438 21.0469 15.7438 21.0471L16.9047 24.3096L17.0889 24.8273L17.5869 24.5952L26.4255 20.4766L26.8078 20.2984L26.6966 19.8915C25.9979 17.3348 24.9081 14.921 23.4563 12.7124L23.4562 12.7122C22.0992 10.6507 20.4478 8.80169 18.5386 7.22172L18.5318 7.21607L18.5248 7.21067C15.1143 4.5862 11.2912 2.8562 7.19999 2.09365L7.19995 2.09364C5.78697 1.83041 4.34213 1.68734 2.90171 1.66221L2.90171 1.66213H2.89298H2.8835C2.35114 1.66213 1.91781 2.07402 1.87155 2.59537C1.84275 2.88643 1.9425 3.16098 2.1202 3.36405L2.1202 3.36406C2.30498 3.57523 2.55971 3.69398 2.83478 3.70513L2.83531 3.70515C3.67756 3.7384 4.51999 3.82897 5.35719 3.96631C7.22918 4.27931 9.05879 4.85339 10.7846 5.67377L10.7846 5.67379L10.7891 5.67587C11.0945 5.81738 12.6169 6.61219 12.9713 8.37427C13.1926 9.49149 12.8313 10.4134 12.5883 10.8673L12.5882 10.8675C12.5273 10.9815 12.3869 11.022 12.2785 10.964C12.1644 10.903 12.124 10.7626 12.1819 10.6542L11.741 10.4184M12.4694 29.1949H12.2668C11.9519 29.1949 11.6338 29.1088 11.3412 28.9321C11.3408 28.9318 11.3404 28.9316 11.34 28.9313L6.36432 25.8822L6.36326 25.8816C5.81452 25.5472 5.47025 24.9899 5.41555 24.3517L5.4155 24.3512C5.36059 23.7181 5.59381 23.1269 6.06048 22.7144L6.06164 22.7134C7.682 21.2722 9.01978 19.5957 10.0344 17.7381C10.6301 16.6483 11.1135 15.4842 11.4776 14.2943L11.4782 14.2926C11.5136 14.1753 11.6415 14.1045 11.764 14.1411C11.881 14.1766 11.9516 14.3042 11.9152 14.4266C11.5417 15.6523 11.0445 16.8443 10.4388 17.9596C9.40348 19.8641 8.033 21.5755 6.36903 23.0601C6.00849 23.3781 5.83465 23.8407 5.87619 24.3122C5.91835 24.8063 6.18666 25.2387 6.6082 25.4959L12.4694 29.1949ZM11.741 10.4184C11.5513 10.7731 11.6879 11.2152 12.0427 11.4049C12.3974 11.5946 12.8394 11.458 13.0291 11.1033L12.0275 8.56305C12.1982 9.39397 11.9213 10.0826 11.741 10.4184ZM13.2221 26.5419L12.033 25.2693L6.60932 25.4966L11.5857 28.5462C11.5858 28.5462 11.5858 28.5462 11.5859 28.5463C12.0969 28.8601 12.765 28.7843 13.1913 28.358L13.1913 28.358C13.6961 27.8533 13.6985 27.0579 13.2242 26.5441L13.2221 26.5419Z" stroke="white"/>
<path d="M22.6363 26.4877C24.2854 25.7396 25.9344 24.9915 27.5871 24.2425C27.9535 25.0801 28.3095 25.9398 28.6563 26.8227C30.7783 32.2509 32.0339 37.4572 32.754 42.201H28.6188C28.1621 39.9967 27.3476 37.2153 25.8341 34.2336C24.828 32.2503 23.7275 30.5966 22.7059 29.2649L22.1963 28.6005L21.8531 29.3643L16.0859 42.201H12.0298C12.9273 40.0056 13.8247 37.8069 14.7221 35.6083C15.6464 33.3439 16.5706 31.0797 17.4948 28.8192C19.2116 28.0413 20.924 27.2645 22.6363 26.4877Z" stroke="white"/>
<path d="M33.5052 42.8493C33.4629 42.8961 33.4102 42.9217 33.3593 42.928H33.3332H28.209C28.0969 42.928 28.0055 42.8475 27.9873 42.7491L27.9874 42.7491L27.9865 42.7448C27.4332 39.8878 26.4905 37.1386 25.1831 34.5623L25.183 34.5621C24.5063 33.2299 23.7312 31.9419 22.8674 30.7175L22.3621 30.0013L22.0027 30.8007L16.6109 42.7961L16.6097 42.7989C16.5773 42.8722 16.4979 42.9279 16.4011 42.9279H11.2769C11.2016 42.9279 11.1285 42.8902 11.084 42.8272C11.042 42.7624 11.036 42.6865 11.0641 42.6179L11.0644 42.6172L16.8865 28.3621L16.8865 28.3621L16.8879 28.3587C16.9066 28.3119 16.9486 28.2652 17.0056 28.2387C17.0059 28.2385 17.0062 28.2384 17.0066 28.2382L27.742 23.3701C27.8124 23.3406 27.8748 23.3433 27.9196 23.3604L27.9212 23.361C27.9789 23.3829 28.0269 23.4294 28.0496 23.4802L28.0497 23.4805C28.5035 24.4972 28.9367 25.5352 29.3382 26.5566C31.3442 31.691 32.7667 37.1133 33.5582 42.6635C33.567 42.7304 33.5464 42.7997 33.5052 42.8493ZM28.2988 42.006L28.2766 42.471H28.801H32.4871H33.0707L32.9811 41.8942C32.1694 36.6667 30.7998 31.5659 28.9082 26.7238L28.9081 26.7238C28.6007 25.9371 28.2722 25.1349 27.9302 24.342L27.7285 23.8742L27.2645 24.0847L17.4586 28.5335L17.2775 28.6156L17.2023 28.7997L11.8979 41.7814L11.6163 42.4705H12.3607H15.9311H16.2545L16.3871 42.1756L22.0985 29.4728C22.0986 29.4726 22.0988 29.4723 22.0989 29.4721C22.1314 29.4013 22.1996 29.3485 22.283 29.3352C22.3647 29.3281 22.4375 29.3612 22.4854 29.4236C23.6664 30.9691 24.714 32.6239 25.5873 34.3483L25.5876 34.3487C26.8157 36.768 27.7245 39.3422 28.2988 42.006Z" stroke="white"/>
</svg>
