<svg width="44" height="37" viewBox="0 0 44 37" fill="none" xmlns="http://www.w3.org/2000/svg">
<path d="M11.2383 5.18208C11.2383 8.04949 13.5529 10.3642 16.4204 10.3642C19.2878 10.3642 21.6024 8.04949 21.6024 5.18208C21.6024 2.31466 19.2878 0 16.4204 0C13.5529 0 11.2383 2.31466 11.2383 5.18208ZM19.5296 5.18208C19.5296 6.90943 18.1477 8.29132 16.4204 8.29132C14.693 8.29132 13.3111 6.90943 13.3111 5.18208C13.3111 3.45472 14.693 2.07283 16.4204 2.07283C18.1477 2.07283 19.5296 3.45472 19.5296 5.18208Z" fill="white"/>
<path d="M30.5859 24.1821C30.5859 27.0495 32.9006 29.3642 35.768 29.3642C38.6354 29.3642 40.9501 27.0495 40.9501 24.1821C40.9501 21.3147 38.6354 19 35.768 19C32.9006 19 30.5859 21.3147 30.5859 24.1821ZM38.8773 24.1821C38.8773 25.9094 37.4954 27.2913 35.768 27.2913C34.0407 27.2913 32.6588 25.9094 32.6588 24.1821C32.6588 22.4547 34.0407 21.0728 35.768 21.0728C37.4954 21.0728 38.8773 22.4547 38.8773 24.1821Z" fill="white"/>
<path d="M43.3666 33.7529C43.3666 32.0601 41.9847 30.7473 40.2574 30.7473H40.2228L32.9679 30.7127L28.4422 26.1525C26.9222 24.667 24.9184 23.8378 22.8111 23.8378H2.7046L7.81758 13.6119C8.50853 12.2645 10.1668 11.7118 11.5141 12.3682C11.8596 12.5409 12.136 12.7482 12.3778 13.0246C12.3778 13.0591 12.4124 13.0591 12.4124 13.0937L21.8092 22.4905C22.2238 22.9051 22.8802 22.9051 23.2602 22.4905C23.6747 22.0759 23.6747 21.4195 23.2602 21.0395L13.9324 11.6427C13.5179 11.159 13.0342 10.779 12.4815 10.5026C10.0977 9.29348 7.19574 10.2953 5.98658 12.6791L0.113565 24.3906C-0.0591705 24.7015 -0.0246234 25.0815 0.148113 25.3925C0.320848 25.7034 0.66632 25.9107 1.04634 25.9107H22.8111C24.3657 25.9107 25.8512 26.5325 26.9567 27.638L31.8279 32.5092C32.0352 32.7165 32.277 32.8201 32.5534 32.8201H40.2574C40.8447 32.8201 41.2938 33.2001 41.2938 33.7529C41.2938 34.3402 40.8101 34.8929 40.2574 34.8929H31.7242C31.6551 34.8929 31.6206 34.8929 31.5515 34.8929H31.5169C31.4133 34.8584 31.2751 34.8238 31.206 34.7893C31.1024 34.7202 30.9987 34.6511 30.9296 34.5475C30.8951 34.5129 30.8951 34.5129 30.8606 34.4784L27.4404 31.0582C26.5767 30.1945 25.4712 29.7454 24.262 29.7454H8.57762C7.99032 29.7454 7.54121 30.1945 7.54121 30.7818C7.54121 31.3691 7.99032 31.8182 8.57762 31.8182H24.262C24.9184 31.8182 25.5057 32.0601 25.9894 32.5092L29.375 35.8948C29.6169 36.1712 29.8932 36.413 30.2042 36.5857C30.4805 36.7585 30.826 36.8621 31.1369 36.9312H31.1715C31.3788 36.9658 31.5515 37.0003 31.7242 37.0003C31.7242 37.0003 31.7242 37.0003 31.7588 37.0003H40.3265C41.9847 36.9658 43.3666 35.4802 43.3666 33.7529Z" fill="white"/>
<path d="M12.4831 17.1C12.2758 17.2037 12.1031 17.3764 12.034 17.5837L10.6521 20.3475C10.4103 20.8657 10.6176 21.4875 11.1012 21.7294C11.6194 21.9712 12.2413 21.7639 12.4831 21.2802L13.2431 19.7602L15.9724 22.4894C16.1797 22.6967 16.456 22.8003 16.6979 22.8003C16.9742 22.8003 17.2852 22.6967 17.4924 22.4548C17.8379 22.0403 17.8034 21.3839 17.3888 21.0039L13.6923 17.3073C13.3813 16.9964 12.8977 16.8927 12.4831 17.1Z" fill="white"/>
<path d="M3.39579 31.7838C3.96819 31.7838 4.43221 31.3197 4.43221 30.7474C4.43221 30.175 3.96819 29.7109 3.39579 29.7109C2.82339 29.7109 2.35938 30.175 2.35938 30.7474C2.35938 31.3197 2.82339 31.7838 3.39579 31.7838Z" fill="white"/>
</svg>
