<svg width="29" height="33" viewBox="0 0 29 33" fill="none" xmlns="http://www.w3.org/2000/svg">
<path d="M24.1871 31.0539H4.81286C2.73552 31.0539 1 29.3092 1 27.0933C1 24.8775 2.73552 23.1328 4.81286 23.1328H24.1871C26.2645 23.1328 28 24.8775 28 27.0933C28 29.3092 26.2645 31.0539 24.1871 31.0539Z" stroke="white" stroke-width="2"/>
<path d="M16.3277 4.21424V5.01131L17.1047 5.18906C22.069 6.32469 25.7101 10.5404 25.7101 15.5332C25.7101 15.5332 25.7101 15.5333 25.7101 15.5333L25.7098 18.8421H3.28906V15.5333C3.28906 10.5332 6.93052 6.31827 11.8933 5.18933L12.6714 5.0123V4.21424V2.70144C12.6714 1.80388 13.4456 1 14.4996 1C15.5535 1 16.3277 1.80388 16.3277 2.70144V4.21424Z" stroke="white" stroke-width="2"/>
</svg>
