<svg width="14" height="34" viewBox="0 0 14 34" fill="none" xmlns="http://www.w3.org/2000/svg">
<path fill-rule="evenodd" clip-rule="evenodd" d="M8.20605 13.037C7.1534 12.427 5.92941 12.5984 5.09301 13.4844C4.93797 13.649 4.79585 13.8387 4.67277 14.0522C4.28857 14.7159 3.29509 14.6853 2.68717 14.3691C2.49269 14.2684 2.32473 14.1379 2.20505 13.9842C1.65221 13.2743 2.34376 12.242 2.70008 11.5539C3.87988 9.27656 4.51501 7.75336 3.68337 2.21L6.39044 2.07332C6.74812 6.01732 7.95173 9.35 11.1878 11.8368C11.7822 12.2924 11.5918 13.3953 11.1572 13.9305C11.0294 14.0882 10.873 14.2113 10.6955 14.2766C9.76801 14.6166 8.94248 13.4647 8.20605 13.037ZM7.25268 18.3362C7.68516 18.8952 8.11561 19.4548 8.94657 19.4548H11.279C11.8971 19.4548 11.8481 20.0314 11.5476 20.3041C8.10676 22.6583 8.05372 27.2972 8.12172 32.0178H6.11573C6.18441 27.2972 6.13 22.659 2.68852 20.3041C2.5124 20.1464 2.27508 19.4548 2.95712 19.4548H5.28885C6.11913 19.4548 6.55025 18.8958 6.98205 18.3369C7.06909 18.224 7.10512 18.1417 7.11736 18.0914C7.13028 18.1417 7.16564 18.2233 7.25268 18.3362ZM8.94657 17.4719C8.94112 17.4719 8.2584 16.0065 7.11804 16.0065C6.01508 16.0065 5.29088 17.4719 5.28953 17.4719H2.9578C2.2846 17.4719 1.76713 17.6569 1.37885 17.954C0.600926 18.5511 0.414605 19.5337 0.636285 20.4435C0.874965 21.4261 1.23129 21.6369 1.87525 22.1639C4.26273 24.1237 4.19812 28.3261 4.13352 32.5264L4.11108 34H10.1257L10.1039 32.5251C10.0393 28.3261 9.97404 24.1244 12.3602 22.1646C13.0048 21.6349 13.3604 21.4322 13.6012 20.4442C13.8222 19.5344 13.6358 18.5518 12.8572 17.9547C12.4696 17.6589 11.9515 17.4726 11.279 17.4726L8.94657 17.4719ZM3.21553 32.5128C3.25293 29.9465 3.56368 24.9376 1.36864 22.9459C1.14152 22.7406 0.894005 22.5964 0.675045 22.3768C0.439085 22.9099 0.231685 23.6715 0.441805 24.3732C1.22517 26.9865 2.10508 30.4429 2.03436 33.9504H3.19308L3.21553 32.5128ZM7.48253 14.96C8.94385 16.3159 10.3018 16.5294 11.3776 16.135C11.9025 15.9419 12.3452 15.6026 12.69 15.1769C13.374 14.3337 13.6698 13.1519 13.4713 12.0863C13.3394 11.3805 12.9892 10.7256 12.388 10.2646C9.33892 7.92268 8.4964 4.66888 8.29376 0.98328L8.23936 0L1.37409 0.34816L1.55837 1.4416C2.56953 7.45756 1.96024 8.70468 0.823285 10.8861C0.561485 11.3995 0.288805 11.8476 0.132405 12.4114C-0.177675 13.5225 0.0820848 14.4752 0.649205 15.2007C0.953845 15.5917 1.34281 15.9038 1.77393 16.1282C3.33521 16.9395 5.44797 16.6607 6.38433 15.0443C6.69373 14.5064 7.07317 14.5724 7.48253 14.96Z" fill="#233EFB"/>
</svg>
