<svg width="28" height="32" viewBox="0 0 28 32" fill="none" xmlns="http://www.w3.org/2000/svg">
<path d="M24.2667 7.07778H23.0222C22.4778 3.26667 18.1222 0 13.3 0C8.08889 0 2.56667 4.04445 2.33333 15.2444H1.71111C1.24444 15.2444 0.933334 15.5556 0.933334 16.0222V18.5111H0.777777C0.311111 18.5111 0 18.8222 0 19.2889V24.1889C0 24.6556 0.311111 24.9667 0.777777 24.9667H5.67778C6.14444 24.9667 6.45555 24.6556 6.45555 24.1889V19.2889C6.45555 18.8222 6.14444 18.5111 5.67778 18.5111H5.52222V16.0222C5.52222 15.5556 5.21111 15.2444 4.74444 15.2444H4.04444C4.27778 6.68889 7.7 1.55556 13.4556 1.55556C17.4222 1.55556 21 4.12222 21.5444 7.07778H13.3778C11.9 7.07778 10.7333 8.08889 10.7333 9.41111V18.3556C10.7333 19.0556 11.1222 19.6778 11.7444 20.1444C12.2111 20.4556 12.5222 21 12.5222 21.5444L13.3 29.4C13.4556 30.6444 14.5444 31.5 15.9444 31.5H21.8556C23.2556 31.5 24.4222 30.5667 24.5 29.4L25.2778 21.4667C25.2778 20.9222 25.5889 20.4556 26.0556 20.1444C26.6778 19.7556 27.0667 19.0556 27.0667 18.3556V9.41111C26.9889 8.08889 25.8222 7.07778 24.2667 7.07778ZM4.74444 19.9889H4.9V23.3333H1.55556V19.9889H1.71111C2.17778 19.9889 2.48889 19.6778 2.48889 19.2111V16.7222H3.88889V19.2111C3.96667 19.6778 4.27778 19.9889 4.74444 19.9889ZM25.4333 18.3556C25.4333 18.5889 25.2778 18.7444 25.1222 18.8222C24.1889 19.4444 23.6444 20.3778 23.6444 21.3889L22.8667 29.2444C22.7889 29.6333 22.3222 29.9444 21.7778 29.9444H15.8667C15.3222 29.9444 14.7778 29.6333 14.7778 29.2444L14 21.4667C14 20.4556 13.4556 19.4444 12.5222 18.8222C12.4444 18.7444 12.2111 18.5889 12.2111 18.3556V9.41111C12.2111 9.02222 12.7556 8.63333 13.3 8.63333H22.3222H24.2667C24.8889 8.63333 25.3556 9.02222 25.3556 9.41111V18.3556H25.4333Z" fill="#233EFB"/>
<path d="M22.9441 9.87891H14.6997C14.233 9.87891 13.9219 10.19 13.9219 10.6567V17.2678C13.9219 17.7345 14.233 18.0456 14.6997 18.0456H23.0219C23.4885 18.0456 23.7997 17.7345 23.7997 17.2678V10.6567C23.7219 10.19 23.4108 9.87891 22.9441 9.87891ZM22.1663 16.49H15.3997V11.4345H22.1663V16.49Z" fill="#233EFB"/>
<path d="M17.4222 14.622H20.1444C20.6111 14.622 20.9222 14.3109 20.9222 13.8442C20.9222 13.3775 20.6111 13.0664 20.1444 13.0664H17.4222C16.9555 13.0664 16.6444 13.3775 16.6444 13.8442C16.6444 14.3109 17.0333 14.622 17.4222 14.622Z" fill="#233EFB"/>
<path d="M17.421 20.3789H16.2543C15.7877 20.3789 15.4766 20.69 15.4766 21.1567C15.4766 21.6234 15.7877 21.9345 16.2543 21.9345H17.421C17.8877 21.9345 18.1988 21.6234 18.1988 21.1567C18.1988 20.69 17.8099 20.3789 17.421 20.3789Z" fill="#233EFB"/>
<path d="M21.3898 20.3789H20.2231C19.7564 20.3789 19.4453 20.69 19.4453 21.1567C19.4453 21.6234 19.7564 21.9345 20.2231 21.9345H21.3898C21.8564 21.9345 22.1675 21.6234 22.1675 21.1567C22.1675 20.69 21.7786 20.3789 21.3898 20.3789Z" fill="#233EFB"/>
<path d="M21.3898 23.4102H20.2231C19.7564 23.4102 19.4453 23.7213 19.4453 24.1879C19.4453 24.6546 19.7564 24.9657 20.2231 24.9657H21.3898C21.8564 24.9657 22.1675 24.6546 22.1675 24.1879C22.1675 23.7213 21.7786 23.4102 21.3898 23.4102Z" fill="#233EFB"/>
<path d="M21.3898 26.3672H20.2231C19.7564 26.3672 19.4453 26.6783 19.4453 27.145C19.4453 27.6116 19.7564 27.9227 20.2231 27.9227H21.3898C21.8564 27.9227 22.1675 27.6116 22.1675 27.145C22.1675 26.6783 21.7786 26.3672 21.3898 26.3672Z" fill="#233EFB"/>
<path d="M17.421 26.3672H16.2543C15.7877 26.3672 15.4766 26.6783 15.4766 27.145C15.4766 27.6116 15.7877 27.9227 16.2543 27.9227H17.421C17.8877 27.9227 18.1988 27.6116 18.1988 27.145C18.1988 26.6783 17.8099 26.3672 17.421 26.3672Z" fill="#233EFB"/>
<path d="M17.421 23.4102H16.2543C15.7877 23.4102 15.4766 23.7213 15.4766 24.1879C15.4766 24.6546 15.7877 24.9657 16.2543 24.9657H17.421C17.8877 24.9657 18.1988 24.6546 18.1988 24.1879C18.1988 23.7213 17.8099 23.4102 17.421 23.4102Z" fill="#233EFB"/>
</svg>
