<svg width="29" height="29" viewBox="0 0 29 29" fill="none" xmlns="http://www.w3.org/2000/svg">
<path d="M14.499 21.4277C10.678 21.4277 7.57031 18.3197 7.57031 14.499C7.57031 10.6783 10.6783 7.57031 14.499 7.57031C18.3197 7.57031 21.4277 10.6783 21.4277 14.499C21.4277 18.3197 18.3197 21.4277 14.499 21.4277ZM14.499 9.5034C11.7451 9.5034 9.50371 11.7437 9.50371 14.4987C9.50371 17.2536 11.7452 19.494 14.499 19.494C17.2527 19.494 19.4943 17.2536 19.4943 14.4987C19.4943 11.7437 17.2527 9.5034 14.499 9.5034Z" fill="#233EFB"/>
<path d="M16.1114 29H12.8886C12.4294 29 12.0331 28.6761 11.9413 28.2254L11.2658 24.895C10.6338 24.6993 10.0224 24.4455 9.43629 24.1374L6.60388 26.0152C6.22082 26.269 5.7121 26.2182 5.38584 25.8932L3.10684 23.6142C2.78178 23.2891 2.73105 22.7804 2.9848 22.3961L4.8626 19.5637C4.55447 18.9789 4.30071 18.3662 4.10496 17.7342L0.774566 17.0587C0.323852 16.9669 0 16.5706 0 16.1114V12.8886C0 12.4294 0.323852 12.0331 0.774566 11.9413L4.10496 11.2658C4.30072 10.6338 4.55447 10.0212 4.8626 9.43629L2.9848 6.60388C2.73104 6.22082 2.78179 5.7109 3.10684 5.38584L5.38584 3.10684C5.7109 2.78178 6.21961 2.72981 6.60388 2.9848L9.43629 4.8626C10.0211 4.55447 10.6338 4.30071 11.2658 4.10496L11.9413 0.774566C12.0331 0.323852 12.4294 0 12.8886 0H16.1114C16.5706 0 16.9669 0.323852 17.0587 0.774566L17.7342 4.10496C18.3662 4.30072 18.9788 4.55447 19.5637 4.8626L22.3961 2.9848C22.7792 2.73104 23.2891 2.78179 23.6142 3.10684L25.8932 5.38584C26.2182 5.7109 26.2689 6.21961 26.0152 6.60388L24.1374 9.43629C24.4455 10.0211 24.6993 10.6338 24.895 11.2658L28.2254 11.9413C28.6761 12.0331 29 12.4294 29 12.8886V16.1114C29 16.5706 28.6761 16.9669 28.2254 17.0587L24.895 17.7342C24.6993 18.3662 24.4455 18.9788 24.1374 19.5637L26.0152 22.3961C26.269 22.7792 26.2182 23.2891 25.8932 23.6142L23.6142 25.8932C23.2891 26.2182 22.7792 26.2702 22.3961 26.0152L19.5637 24.1374C18.9789 24.4455 18.3662 24.6993 17.7342 24.895L17.0587 28.2254C16.9669 28.6761 16.5706 29 16.1114 29ZM13.6777 27.0666H15.3199L15.9555 23.932C16.0292 23.5671 16.3071 23.2771 16.6696 23.1864C17.5276 22.9726 18.3481 22.633 19.1057 22.1775C19.4247 21.9853 19.8271 21.9938 20.1377 22.2004L22.8045 23.9683L23.9658 22.807L22.198 20.1401C21.9913 19.8284 21.9829 19.4272 22.175 19.1082C22.6306 18.3505 22.9701 17.5312 23.1852 16.6721C23.2758 16.3096 23.5658 16.0329 23.9308 15.958L27.0653 15.3223V13.6814L23.9308 13.0458C23.5658 12.972 23.2758 12.6941 23.1852 12.3316C22.9713 11.4725 22.6317 10.6532 22.175 9.89553C21.9829 9.57653 21.9913 9.17414 22.198 8.86359L23.9658 6.1967L22.8045 5.03546L20.1377 6.8033C19.8271 7.00993 19.4247 7.01839 19.1057 6.82626C18.3493 6.37069 17.5288 6.03115 16.6696 5.81727C16.3071 5.72664 16.0304 5.43662 15.9555 5.07169L15.3199 1.93711H13.6777L13.0421 5.07169C12.9684 5.43662 12.6905 5.72663 12.3279 5.81727C11.47 6.03115 10.6495 6.37072 9.89186 6.82626C9.57287 7.01839 9.17047 7.00993 8.85992 6.8033L6.19304 5.03546L5.03179 6.1967L6.79963 8.86359C7.00626 9.17534 7.01472 9.57653 6.82259 9.89553C6.36702 10.6532 6.02748 11.4725 5.8124 12.3316C5.72177 12.6941 5.43175 12.9708 5.06682 13.0458L1.93224 13.6814V15.3223L5.06682 15.958C5.43175 16.0317 5.72176 16.3096 5.8124 16.6721C6.02628 17.5312 6.36584 18.3505 6.82259 19.1082C7.01472 19.4272 7.00626 19.8296 6.79963 20.1401L5.03179 22.807L6.19304 23.9683L8.85992 22.2004C9.17047 21.9938 9.57287 21.9853 9.89186 22.1775C10.6495 22.633 11.47 22.9726 12.3279 23.1864C12.6905 23.2771 12.9672 23.5671 13.0421 23.932L13.6777 27.0666Z" fill="#233EFB"/>
</svg>
