<svg width="37" height="42" viewBox="0 0 37 42" fill="none" xmlns="http://www.w3.org/2000/svg">
<path d="M34.7749 4.93959L32.4344 4.14095C29.6553 3.19458 26.7654 2.54366 23.8478 2.21128L21.7104 1.9666C20.247 1.80041 18.899 2.75602 18.5712 4.19173L18.442 4.76417C18.0311 4.46872 17.768 3.96552 17.7541 3.40693L17.7126 2.12818C17.6756 0.955603 16.7708 0.0323152 15.6536 0.0230823L13.5162 0C13.5116 0 13.5024 0 13.4978 0C12.3806 0 11.4711 0.914055 11.4204 2.08663L11.3696 3.37C11.3373 4.16865 10.8064 4.83341 10.1093 4.95806L5.38667 5.78902C3.85401 6.06139 2.73222 7.45094 2.72298 9.10362L2.6999 12.2797C2.69067 13.3923 3.19848 14.4356 4.05713 15.0727C4.60187 15.4789 5.23894 15.6867 5.88525 15.6867C6.18531 15.6867 6.48538 15.6405 6.77622 15.5528L8.83515 14.9203L8.84439 15.1142C8.87208 15.9175 8.39197 16.633 7.69951 16.8223L3.05537 18.078C1.55502 18.4842 0.54864 19.9707 0.664051 21.6096L0.88564 24.7764C0.964119 25.8844 1.55041 26.8815 2.45061 27.4401C2.94919 27.7494 3.50316 27.9064 4.06175 27.9064C4.44953 27.9064 4.83731 27.8325 5.20663 27.6802L7.1917 26.8723L7.33481 27.7217C7.46869 28.5204 7.0809 29.3098 6.4069 29.6052L1.9705 31.5488C0.544023 32.172 -0.254621 33.7877 0.073146 35.385L0.700982 38.4873C0.917955 39.5675 1.62427 40.4677 2.58449 40.8971C2.9815 41.0725 3.4016 41.1648 3.8217 41.1602C4.3572 41.1602 4.88809 41.0171 5.37282 40.7309L10.6032 37.6425C11.0049 37.4024 11.3465 37.0839 11.6189 36.6915L13.5716 33.8754C13.724 33.6539 13.9225 33.4831 14.1441 33.3723V34.1017C14.1441 34.9188 14.4949 35.7036 15.1043 36.2483C15.7137 36.793 16.5308 37.0562 17.3433 36.9685L19.1621 36.77C21.9597 36.4653 24.7942 36.4653 27.5918 36.7653L29.4983 36.9685C29.5999 36.9777 29.7015 36.9869 29.8076 36.9869C30.514 36.9869 31.2064 36.7238 31.7373 36.2483C32.3467 35.7036 32.6929 34.9188 32.6929 34.1017V28.091C32.6929 27.4632 32.4944 26.8862 32.1528 26.4107C32.7852 25.9536 33.21 25.2565 33.3208 24.481L34.1609 18.5258C34.281 17.6717 34.0132 16.85 33.4916 16.2406C33.6393 16.1899 33.7824 16.1298 33.9163 16.0514C34.6318 15.6544 35.1442 14.9665 35.3243 14.1725L36.6538 8.30959C36.9862 6.86465 36.1737 5.41509 34.7749 4.93959ZM15.6075 24.1486C16.0645 24.6887 16.7016 25.0396 17.394 25.1458L16.7154 25.2196C15.5244 25.3489 14.5734 26.1937 14.2595 27.2924C13.9317 27.0754 13.6824 26.72 13.5762 26.286L13.2762 25.0488C13.1608 24.5779 12.9115 24.1902 12.5837 23.9039L14.2225 22.122C14.4349 21.8912 14.7027 21.7388 14.9889 21.6788L14.9612 21.8865C14.8458 22.699 15.0812 23.5208 15.6075 24.1486ZM30.9987 34.1063C30.9987 34.4479 30.8602 34.7618 30.6063 34.988C30.3524 35.2142 30.0292 35.3204 29.6876 35.2835L27.781 35.0803C26.3315 34.9234 24.8681 34.8449 23.4046 34.8449C21.9274 34.8449 20.4501 34.9234 18.9867 35.085L17.1678 35.2835C16.8262 35.3204 16.5031 35.2142 16.2492 34.988C15.9953 34.7618 15.8568 34.4479 15.8568 34.1063V33.0999L17.2278 32.9429C17.6941 32.8875 18.0311 32.4674 17.9757 32.0012C17.9203 31.5349 17.5048 31.1979 17.034 31.2533L14.4164 31.5534C13.5301 31.6549 12.7176 32.1489 12.1867 32.9152L10.2339 35.7313C10.1001 35.9205 9.93848 36.0729 9.74921 36.1883L4.51878 39.2767C4.131 39.5075 3.69244 39.5306 3.28619 39.3505C2.81993 39.1428 2.48755 38.7089 2.37675 38.1595L1.74891 35.0573C1.58734 34.2494 1.97974 33.4138 2.66297 33.1137L7.09937 31.1702C8.47507 30.5701 9.28295 29.0051 9.01981 27.4494L8.80745 26.1845C8.76591 25.9259 8.9044 25.6628 9.11214 25.6166L11.2034 25.1227C11.388 25.0811 11.5773 25.2242 11.6327 25.4551L11.9328 26.6923C12.2282 27.9018 13.1192 28.8343 14.2595 29.1344L16.083 29.6099C16.5354 29.7299 17.0016 29.4575 17.117 29.0005C17.2371 28.5481 16.9647 28.0818 16.5077 27.9664L15.8891 27.8048C16.0045 27.3339 16.4015 26.9692 16.9047 26.9139L19.0421 26.6784C21.8397 26.3691 24.6742 26.3645 27.4763 26.6599L29.9369 26.9231C30.5417 26.9877 30.9941 27.4955 30.9941 28.1003L30.9987 34.1063ZM32.4806 18.2857L31.6404 24.2409C31.5942 24.5779 31.4095 24.8688 31.1279 25.058C30.8463 25.2473 30.5093 25.3073 30.177 25.2242L28.3165 24.7534C25.4728 24.0332 22.5414 23.6223 19.6053 23.53L17.7726 23.47C17.431 23.4608 17.1217 23.3084 16.9047 23.0499C16.6831 22.7914 16.5908 22.459 16.6369 22.122L16.697 21.7019L17.9342 21.7481C18.4004 21.7665 18.7974 21.4018 18.8159 20.9309C18.8344 20.4601 18.4697 20.0677 17.9988 20.0492L15.3674 19.9476C14.4718 19.9107 13.5947 20.2846 12.9715 20.9633L10.6771 23.4561C10.6679 23.47 10.654 23.4792 10.6402 23.4931L8.71512 23.9455C8.13807 24.0794 7.67181 24.4579 7.39021 24.9519L4.56494 26.1014C4.1587 26.2675 3.72475 26.226 3.3462 25.9906C2.90302 25.7136 2.61681 25.215 2.57526 24.6472L2.35367 21.4803C2.29365 20.6493 2.77376 19.9061 3.49393 19.7122L8.13807 18.4565C9.58763 18.0641 10.594 16.633 10.5386 15.045L10.4925 13.7616C10.4832 13.5031 10.6402 13.2769 10.8479 13.263L12.9807 13.0922C13.17 13.0738 13.35 13.263 13.3777 13.5077L13.5162 14.7772C13.6501 16.0098 14.4072 17.0624 15.4921 17.5286L17.2371 18.2765C17.6664 18.4611 18.1696 18.258 18.3543 17.8287C18.5389 17.3948 18.3358 16.8962 17.9065 16.7115L17.431 16.5084L17.4817 16.1622C17.5648 15.562 18.0773 15.1281 18.6913 15.1419L20.8425 15.2066C23.6539 15.2897 26.4653 15.682 29.1937 16.3653L31.5942 16.9654C32.1851 17.1224 32.5637 17.6856 32.4806 18.2857ZM17.6987 12.3674C18.0727 12.8983 18.622 13.2815 19.236 13.4615L18.742 13.4477C17.3202 13.4015 16.1014 14.3941 15.8291 15.7698C15.4874 15.4974 15.2612 15.0819 15.2058 14.6018L15.0673 13.3323C15.0212 12.9214 14.8688 12.5475 14.6473 12.2428L16.1891 10.8209C16.4661 10.5624 16.8262 10.4332 17.1817 10.447C17.1217 11.121 17.3017 11.8089 17.6987 12.3674ZM35.0011 7.93105L33.6716 13.7939C33.5977 14.1263 33.39 14.3987 33.0946 14.5649C32.7991 14.7311 32.4575 14.7634 32.1343 14.6526L30.3201 14.0294C27.5456 13.0784 24.6557 12.4228 21.7427 12.0858L19.9238 11.8781C19.5868 11.8412 19.2914 11.6657 19.0929 11.3841C18.9405 11.1672 18.8667 10.9133 18.8759 10.6547L19.9192 10.7886C20.3855 10.8486 20.8102 10.5209 20.8702 10.0546C20.9302 9.58835 20.6025 9.16364 20.1362 9.10362L17.5233 8.76662C16.6323 8.65121 15.7275 8.94205 15.0489 9.56988L13.0638 11.398C12.9946 11.398 12.9253 11.398 12.8561 11.4026L10.7233 11.5734C9.83692 11.6427 9.12599 12.2844 8.89055 13.1292L6.28688 13.9278C5.8714 14.0571 5.44207 13.9786 5.08199 13.7108C4.65727 13.3923 4.40337 12.866 4.40798 12.2936L4.43107 9.11747C4.43568 8.29113 4.96657 7.59405 5.69136 7.46479L10.414 6.63383C11.8912 6.37531 13.013 5.03192 13.0777 3.43925L13.1284 2.15588C13.1377 1.90197 13.3085 1.69885 13.507 1.69885C13.507 1.69885 13.507 1.69885 13.5116 1.69885L15.649 1.72193C15.8475 1.72193 16.0137 1.92967 16.023 2.18358L16.0645 3.46233C16.1014 4.69954 16.7754 5.8121 17.8141 6.37069L19.4991 7.2709C19.9146 7.49248 20.427 7.33553 20.6486 6.92005C20.8702 6.50457 20.7133 5.99214 20.2978 5.77055L20.0023 5.61359L20.2378 4.57489C20.3716 3.98399 20.9256 3.59159 21.5257 3.66084L23.6632 3.90551C26.4607 4.22404 29.226 4.84726 31.8897 5.7567L34.2302 6.55535C34.8026 6.74462 35.135 7.33553 35.0011 7.93105Z" fill="white"/>
<path d="M24.1932 5.15144C23.6761 5.09142 23.196 5.42842 23.0806 5.93623L22.2404 9.64323C22.1066 10.2295 22.5128 10.8066 23.1129 10.8758C23.63 10.9358 24.1101 10.5988 24.2255 10.091L25.0657 6.38403C25.1996 5.79774 24.7933 5.2253 24.1932 5.15144Z" fill="white"/>
<path d="M21.4825 16.4225C20.9608 16.4041 20.5131 16.7826 20.4392 17.295L19.9083 21.0574C19.8252 21.653 20.2776 22.1931 20.8777 22.2162C21.3994 22.2346 21.8472 21.8561 21.9211 21.3436L22.452 17.5812C22.5351 16.9811 22.0826 16.441 21.4825 16.4225Z" fill="white"/>
<path d="M19.8469 27.7755C19.3299 27.8309 18.9375 28.2648 18.9375 28.7865V32.5858C18.9375 33.1906 19.4592 33.6614 20.0593 33.5968C20.5763 33.5414 20.9687 33.1075 20.9687 32.5858V28.7865C20.9687 28.1817 20.4471 27.7108 19.8469 27.7755Z" fill="white"/>
</svg>
