<svg width="43" height="38" viewBox="0 0 43 38" fill="none" xmlns="http://www.w3.org/2000/svg">
<path d="M28.5702 2.74385C28.936 2.84384 29.3325 2.6229 29.4312 2.24391L29.792 0.883584C29.8916 0.508027 29.6676 0.122505 29.2924 0.0228617C28.9179 -0.0743753 28.5317 0.147248 28.4313 0.522804L28.0706 1.88313C27.9709 2.25869 28.1949 2.64421 28.5702 2.74385Z" fill="white"/>
<path d="M25.029 2.70241C25.2886 3.59449 26.6139 3.22834 26.387 2.33471C26.387 2.33475 26.0193 0.976495 26.0193 0.976495C25.9183 0.600938 25.5321 0.381377 25.1562 0.481021C24.7817 0.582727 24.5597 0.968938 24.6614 1.34415L25.029 2.70241Z" fill="white"/>
<path d="M31.1593 4.6675C31.5908 4.72312 32.1783 3.88023 32.6512 3.46284C33.2967 2.80806 32.3063 1.82097 31.6533 2.46987C31.6534 2.46983 30.6604 3.4673 30.6604 3.4673C30.2136 3.88572 30.5582 4.68864 31.1593 4.6675Z" fill="white"/>
<path d="M12.0721 22.1587C12.0989 22.1663 26.0248 20.9938 26.0643 20.9949C26.9787 20.9072 26.875 19.5238 25.9474 19.5923L12.0143 20.7537C11.1323 20.837 11.1843 22.1488 12.0721 22.1587Z" fill="white"/>
<path d="M42.1341 18.6277C39.7076 14.7217 31.8247 6.8377 27.8368 4.32939C21.4452 3.57299 14.0585 6.48481 9.64643 9.29222C7.61432 8.3583 6.3243 6.87098 5.28482 5.65844C4.12826 4.30774 3.12837 3.13984 1.65156 3.62259C-1.62701 4.91209 0.814673 9.30991 1.83925 12.8296C-0.423505 13.8906 0.103544 17.3558 0.0344335 20.1859C0.0810746 23.405 -0.13634 27.8016 1.40992 29.9247C0.583037 30.3973 0.0180654 31.2776 0.0180654 32.2963V35.2574C0.0180654 36.7693 1.24817 37.999 2.76001 37.999H39.498C41.0099 37.999 42.24 36.7693 42.24 35.2574V32.2963C42.24 30.7844 41.0099 29.5546 39.498 29.5546H35.6685C33.4158 24.4288 26.8945 15.9428 23.8167 14.9385C20.7188 13.9307 15.2754 16.226 12.3513 17.4585C12.2184 17.5131 11.9534 17.624 11.8352 17.6749C11.3088 17.8935 10.1784 17.1619 9.40048 15.7576C8.49972 14.1485 8.25852 11.9572 10.1511 10.6375C14.9561 7.40322 21.958 5.34731 27.239 5.61755C31.0749 8.10455 38.6686 15.7157 40.9384 19.3706C41.439 20.1511 42.6091 19.4145 42.1341 18.6277ZM37.9966 30.962C37.9965 30.962 39.498 30.962 39.498 30.962C40.234 30.962 40.8326 31.5606 40.8326 32.2963V35.2574C40.8326 35.9931 40.234 36.5916 39.498 36.5916H2.76003C2.02403 36.5916 1.42548 35.9931 1.42548 35.2574V32.2963C1.42548 31.5606 2.02404 30.962 2.76003 30.962H8.46246C9.48872 30.9614 38.109 30.9625 37.9966 30.962ZM12.8983 18.7551C15.4575 17.6763 20.7834 15.4309 23.3803 16.2765C25.5479 16.9837 31.6261 24.2986 34.1222 29.5546H8.73322C7.13194 28.1707 6.39668 25.1206 7.81318 22.9567C8.01303 22.6235 7.90514 22.1912 7.57184 21.9916C7.23855 21.7916 6.80629 21.8999 6.60632 22.2332C5.28474 24.1554 5.33653 27.6261 6.89146 29.5546H2.93015C1.57975 28.2588 1.46052 25.3406 1.46052 22.2009C1.47744 19.978 1.26222 16.5704 1.7141 15.0869C1.83805 14.5865 2.06878 14.266 2.28117 14.1691C3.35154 17.4075 4.83165 21.2814 8.20064 21.2814C10.0637 21.3044 11.6213 20.2567 12.8983 18.7551ZM10.7344 18.9373C7.05786 21.4059 5.26619 18.9789 3.40403 13.0745C2.70553 10.8174 0.922015 6.52926 1.55948 5.37188C2.37828 4.30611 3.11076 5.32357 4.21622 6.57411C5.19205 7.71251 6.4785 9.21371 8.44597 10.2765C5.98607 13.1096 7.86309 17.585 10.7344 18.9373Z" fill="white"/>
<path d="M32.4061 10.1112C31.0533 8.48337 28.2494 9.03996 27.6272 11.0596C23.5074 12.0855 25.5529 18.0335 29.4339 16.3304L38.1861 26.2444C38.3256 26.4021 38.5194 26.4825 38.7139 26.4825C38.8788 26.4825 39.0438 26.4251 39.1771 26.3087L41.2964 24.4563C41.5866 24.2123 41.6175 23.7401 41.361 23.4609L32.6115 13.5504C33.3166 12.5168 33.2664 11.0963 32.4061 10.1112ZM39.8375 23.8619L38.7778 24.7882L30.0833 14.9399C29.3781 14.2222 28.9242 15.3513 28.0718 15.2202C27.3169 15.1848 26.6957 14.4748 26.7627 13.7215C26.7488 13.0135 27.5831 12.3241 28.1873 12.4165C28.5763 12.402 28.8532 12.1546 28.8965 11.7973C28.9727 10.6598 30.5622 10.096 31.3464 11.0373C31.857 11.6217 31.7965 12.5127 31.2124 13.0236C31.0715 13.147 30.9856 13.3212 30.9732 13.5081C30.9616 13.695 31.0241 13.8788 31.1478 14.019L39.8375 23.8619Z" fill="white"/>
<path d="M18.3869 9.35561L9.64495 12.3367C9.46765 12.3968 9.32265 12.5247 9.24018 12.6923C9.15772 12.8597 9.14535 13.0531 9.20582 13.2297L10.1143 15.8937C10.239 16.2653 10.6496 16.4581 11.0077 16.3325L19.7496 13.3517C22.2622 16.7642 27.0006 12.6351 23.9491 9.6889C24.5618 5.4899 18.2867 5.12432 18.3869 9.35561ZM22.5575 13.138C21.8437 13.3949 21.0014 12.982 20.7708 12.26C20.711 12.0831 20.5832 11.9378 20.4155 11.8553C20.2479 11.7736 20.0547 11.7608 19.8781 11.821L11.2193 14.7735L10.7651 13.4414L19.4232 10.4888C19.7839 10.3743 19.9916 9.95116 19.8623 9.59579C19.306 7.82718 21.8839 6.94469 22.5266 8.68735C22.8388 9.46287 21.9932 10.0901 22.785 10.5837C23.8086 11.0824 23.7252 12.7755 22.5575 13.138Z" fill="white"/>
</svg>
