<svg width="47" height="47" viewBox="0 0 47 47" fill="none" xmlns="http://www.w3.org/2000/svg">
<mask id="path-1-outside-1_1_611" maskUnits="userSpaceOnUse" x="0" y="0" width="47" height="47" fill="black">
<rect fill="white" width="47" height="47"/>
<path d="M36.9697 15.7232C36.7934 15.4183 36.898 15.0284 37.2029 14.8522L42.1141 12.0165C42.419 11.8407 42.8089 11.9448 42.9851 12.2497C43.1614 12.5547 43.0568 12.9445 42.7519 13.1208L37.8407 15.9565C37.7401 16.0144 37.6306 16.0419 37.5225 16.0419C37.3021 16.0419 37.088 15.928 36.9697 15.7232ZM4.2481 13.1213L9.15928 15.9569C9.25994 16.0149 9.36943 16.0424 9.47746 16.0424C9.69792 16.0424 9.91201 15.928 10.0303 15.7237C10.2066 15.4188 10.102 15.0289 9.79711 14.8526L4.88544 12.0165C4.58052 11.8407 4.19065 11.9448 4.01437 12.2497C3.83859 12.5552 3.94268 12.945 4.2481 13.1213ZM9.15928 31.0435L4.2481 33.8792C3.94317 34.0555 3.83859 34.4453 4.01486 34.7502C4.1332 34.955 4.34728 35.0689 4.56775 35.0689C4.67577 35.0689 4.78576 35.0414 4.88593 34.9835L9.79711 32.1478C10.102 31.9716 10.2066 31.5817 10.0303 31.2768C9.85407 30.9718 9.4642 30.8673 9.15928 31.0435ZM7.94646 23.5C7.94646 23.1479 7.66117 22.8622 7.30862 22.8622H1.63783C1.28577 22.8622 1 23.1474 1 23.5C1 23.8521 1.28528 24.1378 1.63783 24.1378H7.30911C7.66117 24.1378 7.94646 23.8521 7.94646 23.5ZM45.3622 22.8622H39.6909C39.3388 22.8622 39.0531 23.1474 39.0531 23.5C39.0531 23.8521 39.3383 24.1378 39.6909 24.1378H45.3622C45.7142 24.1378 46 23.8525 46 23.5C46 23.1479 45.7142 22.8622 45.3622 22.8622ZM42.7519 33.8792L37.8407 31.0435C37.5358 30.8673 37.1459 30.9718 36.9697 31.2768C36.7934 31.5817 36.898 31.9716 37.2029 32.1478L42.1141 34.9835C42.2147 35.0414 42.3242 35.0689 42.4323 35.0689C42.6527 35.0689 42.8668 34.9545 42.9851 34.7502C43.1614 34.4448 43.0573 34.055 42.7519 33.8792ZM32.2166 36.4801C31.5296 37.6703 30.4199 38.5218 29.0927 38.8773C27.9727 39.1773 26.8109 39.0943 25.7602 38.6484L21.6999 45.6813C21.6155 45.8277 21.476 45.9347 21.3125 45.9784C21.258 45.9931 21.2025 46 21.1475 46C21.0366 46 20.9266 45.971 20.8289 45.9146L14.4127 42.2103C14.1078 42.034 14.0032 41.6442 14.1795 41.3392L18.2402 34.3064C16.2005 32.7651 15.5789 29.9009 16.8894 27.6309C17.5763 26.4407 18.686 25.5893 20.0138 25.2338C21.341 24.8783 22.7276 25.0605 23.9179 25.7479C25.0772 26.4171 25.9197 27.4944 26.2895 28.7814C26.318 28.8816 26.4201 28.94 26.5208 28.915C27.82 28.5919 29.1742 28.7829 30.3335 29.4521C32.7901 30.8702 33.6351 34.023 32.2166 36.4801ZM29.6957 30.556C28.8236 30.0527 27.8053 29.9093 26.8281 30.1518C26.0577 30.3433 25.2824 29.8955 25.0634 29.133C24.785 28.1652 24.1516 27.355 23.2795 26.8517C22.3844 26.3347 21.3415 26.1972 20.3432 26.4653C19.345 26.7329 18.5103 27.3732 17.9937 28.2683C17.4767 29.1634 17.3397 30.2063 17.6073 31.2046C17.8749 32.2028 18.5152 33.0376 19.4103 33.5541C19.7152 33.7304 19.8198 34.1203 19.6435 34.4252L15.6024 41.4242L20.9143 44.4911L24.9554 37.4921C25.0398 37.3458 25.1793 37.2387 25.3428 37.195C25.5063 37.1513 25.6801 37.1744 25.8265 37.2589C27.6742 38.3259 30.0458 37.6905 31.1128 35.8423C32.1788 33.9946 31.5434 31.6229 29.6957 30.556ZM14.179 5.66075C14.0945 5.51443 14.0714 5.34012 14.1151 5.1771C14.1588 5.01359 14.2659 4.87463 14.4122 4.78969L20.8284 1.08543C21.1333 0.909646 21.5232 1.01374 21.6994 1.31867L25.7597 8.35154C26.8105 7.9057 27.9722 7.82271 29.0922 8.12273C30.4195 8.47823 31.5292 9.32965 32.2161 10.5199C33.6346 12.9769 32.7896 16.1298 30.333 17.5483C29.1732 18.2176 27.8195 18.4086 26.5203 18.0855C26.4196 18.0605 26.3175 18.1189 26.289 18.2191C25.9193 19.506 25.0767 20.5833 23.9174 21.2526C23.1091 21.7191 22.2258 21.941 21.3533 21.941C19.5738 21.941 17.841 21.0184 16.8889 19.3695C15.5784 17.0996 16.2 14.2354 18.2397 12.6941L14.179 5.66075ZM15.6019 5.57532L19.643 12.5743C19.8193 12.8792 19.7147 13.2691 19.4098 13.4454C18.5147 13.9619 17.8744 14.7967 17.6068 15.7949C17.3392 16.7932 17.4767 17.8361 17.9932 18.7312C18.5103 19.6263 19.3445 20.2666 20.3427 20.5342C21.341 20.8018 22.3839 20.6644 23.279 20.1478C24.1511 19.6445 24.7845 18.8343 25.0629 17.8665C25.2824 17.104 26.0572 16.6562 26.8276 16.8477C27.8048 17.0907 28.8231 16.9473 29.6952 16.4436C30.5903 15.927 31.2306 15.0923 31.4982 14.094C31.7658 13.0958 31.6283 12.0529 31.1118 11.1577C30.5947 10.2626 29.7605 9.6223 28.7623 9.3547C27.764 9.08709 26.7211 9.22458 25.826 9.74113C25.521 9.91741 25.1312 9.81282 24.9549 9.50789L20.9138 2.5089L15.6019 5.57532ZM33.8969 23.5C33.8969 25.3551 32.8986 27.0849 31.2915 28.0149C31.1928 28.0719 31.0823 28.1009 30.9723 28.1009C30.8624 28.1009 30.7524 28.0724 30.6537 28.0154L23.7897 24.0524C23.5918 23.9385 23.4705 23.7278 23.4705 23.5C23.4705 23.2722 23.5918 23.0615 23.7892 22.9476L30.6532 18.9846C30.8506 18.8707 31.0941 18.8707 31.2915 18.9851C32.8986 19.9151 33.8969 21.6449 33.8969 23.5ZM32.6217 23.5C32.6217 22.2189 31.9912 21.0169 30.9556 20.2828L25.3836 23.5L30.9556 26.7172C31.9912 25.9831 32.6217 24.7811 32.6217 23.5Z"/>
</mask>
<path d="M36.9697 15.7232C36.7934 15.4183 36.898 15.0284 37.2029 14.8522L42.1141 12.0165C42.419 11.8407 42.8089 11.9448 42.9851 12.2497C43.1614 12.5547 43.0568 12.9445 42.7519 13.1208L37.8407 15.9565C37.7401 16.0144 37.6306 16.0419 37.5225 16.0419C37.3021 16.0419 37.088 15.928 36.9697 15.7232ZM4.2481 13.1213L9.15928 15.9569C9.25994 16.0149 9.36943 16.0424 9.47746 16.0424C9.69792 16.0424 9.91201 15.928 10.0303 15.7237C10.2066 15.4188 10.102 15.0289 9.79711 14.8526L4.88544 12.0165C4.58052 11.8407 4.19065 11.9448 4.01437 12.2497C3.83859 12.5552 3.94268 12.945 4.2481 13.1213ZM9.15928 31.0435L4.2481 33.8792C3.94317 34.0555 3.83859 34.4453 4.01486 34.7502C4.1332 34.955 4.34728 35.0689 4.56775 35.0689C4.67577 35.0689 4.78576 35.0414 4.88593 34.9835L9.79711 32.1478C10.102 31.9716 10.2066 31.5817 10.0303 31.2768C9.85407 30.9718 9.4642 30.8673 9.15928 31.0435ZM7.94646 23.5C7.94646 23.1479 7.66117 22.8622 7.30862 22.8622H1.63783C1.28577 22.8622 1 23.1474 1 23.5C1 23.8521 1.28528 24.1378 1.63783 24.1378H7.30911C7.66117 24.1378 7.94646 23.8521 7.94646 23.5ZM45.3622 22.8622H39.6909C39.3388 22.8622 39.0531 23.1474 39.0531 23.5C39.0531 23.8521 39.3383 24.1378 39.6909 24.1378H45.3622C45.7142 24.1378 46 23.8525 46 23.5C46 23.1479 45.7142 22.8622 45.3622 22.8622ZM42.7519 33.8792L37.8407 31.0435C37.5358 30.8673 37.1459 30.9718 36.9697 31.2768C36.7934 31.5817 36.898 31.9716 37.2029 32.1478L42.1141 34.9835C42.2147 35.0414 42.3242 35.0689 42.4323 35.0689C42.6527 35.0689 42.8668 34.9545 42.9851 34.7502C43.1614 34.4448 43.0573 34.055 42.7519 33.8792ZM32.2166 36.4801C31.5296 37.6703 30.4199 38.5218 29.0927 38.8773C27.9727 39.1773 26.8109 39.0943 25.7602 38.6484L21.6999 45.6813C21.6155 45.8277 21.476 45.9347 21.3125 45.9784C21.258 45.9931 21.2025 46 21.1475 46C21.0366 46 20.9266 45.971 20.8289 45.9146L14.4127 42.2103C14.1078 42.034 14.0032 41.6442 14.1795 41.3392L18.2402 34.3064C16.2005 32.7651 15.5789 29.9009 16.8894 27.6309C17.5763 26.4407 18.686 25.5893 20.0138 25.2338C21.341 24.8783 22.7276 25.0605 23.9179 25.7479C25.0772 26.4171 25.9197 27.4944 26.2895 28.7814C26.318 28.8816 26.4201 28.94 26.5208 28.915C27.82 28.5919 29.1742 28.7829 30.3335 29.4521C32.7901 30.8702 33.6351 34.023 32.2166 36.4801ZM29.6957 30.556C28.8236 30.0527 27.8053 29.9093 26.8281 30.1518C26.0577 30.3433 25.2824 29.8955 25.0634 29.133C24.785 28.1652 24.1516 27.355 23.2795 26.8517C22.3844 26.3347 21.3415 26.1972 20.3432 26.4653C19.345 26.7329 18.5103 27.3732 17.9937 28.2683C17.4767 29.1634 17.3397 30.2063 17.6073 31.2046C17.8749 32.2028 18.5152 33.0376 19.4103 33.5541C19.7152 33.7304 19.8198 34.1203 19.6435 34.4252L15.6024 41.4242L20.9143 44.4911L24.9554 37.4921C25.0398 37.3458 25.1793 37.2387 25.3428 37.195C25.5063 37.1513 25.6801 37.1744 25.8265 37.2589C27.6742 38.3259 30.0458 37.6905 31.1128 35.8423C32.1788 33.9946 31.5434 31.6229 29.6957 30.556ZM14.179 5.66075C14.0945 5.51443 14.0714 5.34012 14.1151 5.1771C14.1588 5.01359 14.2659 4.87463 14.4122 4.78969L20.8284 1.08543C21.1333 0.909646 21.5232 1.01374 21.6994 1.31867L25.7597 8.35154C26.8105 7.9057 27.9722 7.82271 29.0922 8.12273C30.4195 8.47823 31.5292 9.32965 32.2161 10.5199C33.6346 12.9769 32.7896 16.1298 30.333 17.5483C29.1732 18.2176 27.8195 18.4086 26.5203 18.0855C26.4196 18.0605 26.3175 18.1189 26.289 18.2191C25.9193 19.506 25.0767 20.5833 23.9174 21.2526C23.1091 21.7191 22.2258 21.941 21.3533 21.941C19.5738 21.941 17.841 21.0184 16.8889 19.3695C15.5784 17.0996 16.2 14.2354 18.2397 12.6941L14.179 5.66075ZM15.6019 5.57532L19.643 12.5743C19.8193 12.8792 19.7147 13.2691 19.4098 13.4454C18.5147 13.9619 17.8744 14.7967 17.6068 15.7949C17.3392 16.7932 17.4767 17.8361 17.9932 18.7312C18.5103 19.6263 19.3445 20.2666 20.3427 20.5342C21.341 20.8018 22.3839 20.6644 23.279 20.1478C24.1511 19.6445 24.7845 18.8343 25.0629 17.8665C25.2824 17.104 26.0572 16.6562 26.8276 16.8477C27.8048 17.0907 28.8231 16.9473 29.6952 16.4436C30.5903 15.927 31.2306 15.0923 31.4982 14.094C31.7658 13.0958 31.6283 12.0529 31.1118 11.1577C30.5947 10.2626 29.7605 9.6223 28.7623 9.3547C27.764 9.08709 26.7211 9.22458 25.826 9.74113C25.521 9.91741 25.1312 9.81282 24.9549 9.50789L20.9138 2.5089L15.6019 5.57532ZM33.8969 23.5C33.8969 25.3551 32.8986 27.0849 31.2915 28.0149C31.1928 28.0719 31.0823 28.1009 30.9723 28.1009C30.8624 28.1009 30.7524 28.0724 30.6537 28.0154L23.7897 24.0524C23.5918 23.9385 23.4705 23.7278 23.4705 23.5C23.4705 23.2722 23.5918 23.0615 23.7892 22.9476L30.6532 18.9846C30.8506 18.8707 31.0941 18.8707 31.2915 18.9851C32.8986 19.9151 33.8969 21.6449 33.8969 23.5ZM32.6217 23.5C32.6217 22.2189 31.9912 21.0169 30.9556 20.2828L25.3836 23.5L30.9556 26.7172C31.9912 25.9831 32.6217 24.7811 32.6217 23.5Z" fill="white"/>
<path d="M36.9697 15.7232C36.7934 15.4183 36.898 15.0284 37.2029 14.8522L42.1141 12.0165C42.419 11.8407 42.8089 11.9448 42.9851 12.2497C43.1614 12.5547 43.0568 12.9445 42.7519 13.1208L37.8407 15.9565C37.7401 16.0144 37.6306 16.0419 37.5225 16.0419C37.3021 16.0419 37.088 15.928 36.9697 15.7232ZM4.2481 13.1213L9.15928 15.9569C9.25994 16.0149 9.36943 16.0424 9.47746 16.0424C9.69792 16.0424 9.91201 15.928 10.0303 15.7237C10.2066 15.4188 10.102 15.0289 9.79711 14.8526L4.88544 12.0165C4.58052 11.8407 4.19065 11.9448 4.01437 12.2497C3.83859 12.5552 3.94268 12.945 4.2481 13.1213ZM9.15928 31.0435L4.2481 33.8792C3.94317 34.0555 3.83859 34.4453 4.01486 34.7502C4.1332 34.955 4.34728 35.0689 4.56775 35.0689C4.67577 35.0689 4.78576 35.0414 4.88593 34.9835L9.79711 32.1478C10.102 31.9716 10.2066 31.5817 10.0303 31.2768C9.85407 30.9718 9.4642 30.8673 9.15928 31.0435ZM7.94646 23.5C7.94646 23.1479 7.66117 22.8622 7.30862 22.8622H1.63783C1.28577 22.8622 1 23.1474 1 23.5C1 23.8521 1.28528 24.1378 1.63783 24.1378H7.30911C7.66117 24.1378 7.94646 23.8521 7.94646 23.5ZM45.3622 22.8622H39.6909C39.3388 22.8622 39.0531 23.1474 39.0531 23.5C39.0531 23.8521 39.3383 24.1378 39.6909 24.1378H45.3622C45.7142 24.1378 46 23.8525 46 23.5C46 23.1479 45.7142 22.8622 45.3622 22.8622ZM42.7519 33.8792L37.8407 31.0435C37.5358 30.8673 37.1459 30.9718 36.9697 31.2768C36.7934 31.5817 36.898 31.9716 37.2029 32.1478L42.1141 34.9835C42.2147 35.0414 42.3242 35.0689 42.4323 35.0689C42.6527 35.0689 42.8668 34.9545 42.9851 34.7502C43.1614 34.4448 43.0573 34.055 42.7519 33.8792ZM32.2166 36.4801C31.5296 37.6703 30.4199 38.5218 29.0927 38.8773C27.9727 39.1773 26.8109 39.0943 25.7602 38.6484L21.6999 45.6813C21.6155 45.8277 21.476 45.9347 21.3125 45.9784C21.258 45.9931 21.2025 46 21.1475 46C21.0366 46 20.9266 45.971 20.8289 45.9146L14.4127 42.2103C14.1078 42.034 14.0032 41.6442 14.1795 41.3392L18.2402 34.3064C16.2005 32.7651 15.5789 29.9009 16.8894 27.6309C17.5763 26.4407 18.686 25.5893 20.0138 25.2338C21.341 24.8783 22.7276 25.0605 23.9179 25.7479C25.0772 26.4171 25.9197 27.4944 26.2895 28.7814C26.318 28.8816 26.4201 28.94 26.5208 28.915C27.82 28.5919 29.1742 28.7829 30.3335 29.4521C32.7901 30.8702 33.6351 34.023 32.2166 36.4801ZM29.6957 30.556C28.8236 30.0527 27.8053 29.9093 26.8281 30.1518C26.0577 30.3433 25.2824 29.8955 25.0634 29.133C24.785 28.1652 24.1516 27.355 23.2795 26.8517C22.3844 26.3347 21.3415 26.1972 20.3432 26.4653C19.345 26.7329 18.5103 27.3732 17.9937 28.2683C17.4767 29.1634 17.3397 30.2063 17.6073 31.2046C17.8749 32.2028 18.5152 33.0376 19.4103 33.5541C19.7152 33.7304 19.8198 34.1203 19.6435 34.4252L15.6024 41.4242L20.9143 44.4911L24.9554 37.4921C25.0398 37.3458 25.1793 37.2387 25.3428 37.195C25.5063 37.1513 25.6801 37.1744 25.8265 37.2589C27.6742 38.3259 30.0458 37.6905 31.1128 35.8423C32.1788 33.9946 31.5434 31.6229 29.6957 30.556ZM14.179 5.66075C14.0945 5.51443 14.0714 5.34012 14.1151 5.1771C14.1588 5.01359 14.2659 4.87463 14.4122 4.78969L20.8284 1.08543C21.1333 0.909646 21.5232 1.01374 21.6994 1.31867L25.7597 8.35154C26.8105 7.9057 27.9722 7.82271 29.0922 8.12273C30.4195 8.47823 31.5292 9.32965 32.2161 10.5199C33.6346 12.9769 32.7896 16.1298 30.333 17.5483C29.1732 18.2176 27.8195 18.4086 26.5203 18.0855C26.4196 18.0605 26.3175 18.1189 26.289 18.2191C25.9193 19.506 25.0767 20.5833 23.9174 21.2526C23.1091 21.7191 22.2258 21.941 21.3533 21.941C19.5738 21.941 17.841 21.0184 16.8889 19.3695C15.5784 17.0996 16.2 14.2354 18.2397 12.6941L14.179 5.66075ZM15.6019 5.57532L19.643 12.5743C19.8193 12.8792 19.7147 13.2691 19.4098 13.4454C18.5147 13.9619 17.8744 14.7967 17.6068 15.7949C17.3392 16.7932 17.4767 17.8361 17.9932 18.7312C18.5103 19.6263 19.3445 20.2666 20.3427 20.5342C21.341 20.8018 22.3839 20.6644 23.279 20.1478C24.1511 19.6445 24.7845 18.8343 25.0629 17.8665C25.2824 17.104 26.0572 16.6562 26.8276 16.8477C27.8048 17.0907 28.8231 16.9473 29.6952 16.4436C30.5903 15.927 31.2306 15.0923 31.4982 14.094C31.7658 13.0958 31.6283 12.0529 31.1118 11.1577C30.5947 10.2626 29.7605 9.6223 28.7623 9.3547C27.764 9.08709 26.7211 9.22458 25.826 9.74113C25.521 9.91741 25.1312 9.81282 24.9549 9.50789L20.9138 2.5089L15.6019 5.57532ZM33.8969 23.5C33.8969 25.3551 32.8986 27.0849 31.2915 28.0149C31.1928 28.0719 31.0823 28.1009 30.9723 28.1009C30.8624 28.1009 30.7524 28.0724 30.6537 28.0154L23.7897 24.0524C23.5918 23.9385 23.4705 23.7278 23.4705 23.5C23.4705 23.2722 23.5918 23.0615 23.7892 22.9476L30.6532 18.9846C30.8506 18.8707 31.0941 18.8707 31.2915 18.9851C32.8986 19.9151 33.8969 21.6449 33.8969 23.5ZM32.6217 23.5C32.6217 22.2189 31.9912 21.0169 30.9556 20.2828L25.3836 23.5L30.9556 26.7172C31.9912 25.9831 32.6217 24.7811 32.6217 23.5Z" stroke="white" stroke-width="0.6" mask="url(#path-1-outside-1_1_611)"/>
</svg>
