<svg width="40" height="46" viewBox="0 0 40 46" fill="none" xmlns="http://www.w3.org/2000/svg">
<path d="M33.1752 7.16033C32.4124 6.52169 31.4174 7.66439 32.1795 8.32685C40.3283 15.0596 40.3266 30.9445 32.1792 37.6758C31.4258 38.3334 32.3958 39.4882 33.1753 38.8422C42.0351 31.51 42.0339 14.4902 33.1752 7.16033Z" fill="white"/>
<path d="M11.5021 8.43333H12.2687V9.96667C12.2687 11.235 13.3005 12.2667 14.5687 12.2667H17.01C16.7829 12.7529 16.892 14.0337 16.8687 14.5667H16.1021C15.2568 14.5667 14.5687 15.2543 14.5687 16.1V18.4C14.5687 19.2457 15.2568 19.9333 16.1021 19.9333H16.8687C16.8798 20.8774 16.7031 22.2969 17.467 23C16.8824 23.5684 16.8261 24.5103 16.8687 25.3H16.1021C15.2568 25.3 14.5687 25.9881 14.5687 26.8333V29.1333C14.5687 29.9786 15.2568 30.6667 16.1021 30.6667H16.8687C16.9038 31.2447 16.7609 33.2183 17.0101 33.7333H14.5687C13.3005 33.7333 12.2687 34.765 12.2687 36.0333V36.8H11.5021C10.6568 36.8 9.96875 37.4881 9.96875 38.3333V40.6333C9.96875 41.4786 10.6568 42.1667 11.5021 42.1667H12.2687V43.7C12.2687 44.9683 13.3005 46 14.5687 46H23.7687C25.037 46 26.0688 44.9683 26.0688 43.7V42.1667H26.8354C27.6807 42.1667 28.3687 41.4786 28.3687 40.6333V38.3333C28.3687 37.4881 27.6807 36.8 26.8354 36.8H26.0688C26.0662 36.347 26.1092 35.6832 25.9275 35.2667H28.3687C29.637 35.2667 30.6687 34.235 30.6687 32.9667V30.6667H31.4354C32.2807 30.6667 32.9688 29.9786 32.9688 29.1333V26.8333C32.9688 25.9881 32.2807 25.3 31.4354 25.3H30.6687C30.7113 24.5095 30.6552 23.569 30.0705 23C30.8336 22.2996 30.6581 20.874 30.6687 19.9333H31.4354C32.2807 19.9333 32.9688 19.2457 32.9688 18.4V16.1C32.9688 15.2543 32.2807 14.5667 31.4354 14.5667H30.6687V13.0333C30.6687 11.765 29.637 10.7333 28.3687 10.7333H25.9275C26.1546 10.247 26.0455 8.96622 26.0688 8.43333H26.8354C27.6807 8.43333 28.3687 7.74566 28.3687 6.9V4.6C28.3687 3.75434 27.6807 3.06667 26.8354 3.06667H26.0688V2.3C26.0688 1.0317 25.037 0 23.7687 0H14.5687C13.3005 0 12.2687 1.0317 12.2687 2.3V3.06667H11.5021C10.6568 3.06667 9.96875 3.75434 9.96875 4.6V6.9C9.96875 7.74566 10.6568 8.43333 11.5021 8.43333ZM26.8354 38.3333V40.6333H25.3021C24.8783 40.6333 24.5354 40.9762 24.5354 41.4V43.7C24.5354 44.123 24.1918 44.4667 23.7687 44.4667H14.5687C14.1457 44.4667 13.8021 44.123 13.8021 43.7V41.4C13.8021 40.9762 13.4592 40.6333 13.0354 40.6333H11.5021V38.3333H13.0354C13.4592 38.3333 13.8021 37.9904 13.8021 37.5667V36.0333C13.8021 35.6103 14.1457 35.2667 14.5687 35.2667H23.7687C24.1918 35.2667 24.5354 35.6103 24.5354 36.0333V37.5667C24.5354 37.9904 24.8783 38.3333 25.3021 38.3333H26.8354ZM31.4354 26.8333V29.1333H29.9021C29.4783 29.1333 29.1354 29.4762 29.1354 29.9V32.9667C29.1354 33.3897 28.7918 33.7333 28.3687 33.7333H19.1687C18.7457 33.7333 18.4021 33.3897 18.4021 32.9667V29.9C18.4021 29.4762 18.0592 29.1333 17.6354 29.1333H16.1021V26.8333H17.6354C18.0592 26.8333 18.4021 26.4904 18.4021 26.0667V24.5333C18.4021 24.1103 18.7457 23.7667 19.1687 23.7667H28.3687C28.7918 23.7667 29.1354 24.1103 29.1354 24.5333V26.0667C29.1354 26.4904 29.4783 26.8333 29.9021 26.8333H31.4354ZM28.3687 12.2667C28.7918 12.2667 29.1354 12.6107 29.1354 13.0333V15.3333C29.1354 15.7567 29.4783 16.1 29.9021 16.1H31.4354V18.4H29.9021C29.4783 18.4 29.1354 18.7433 29.1354 19.1667V21.4667C29.1354 21.8893 28.7918 22.2333 28.3687 22.2333H19.1687C18.7457 22.2333 18.4021 21.8893 18.4021 21.4667V19.1667C18.4021 18.7433 18.0592 18.4 17.6354 18.4H16.1021V16.1H17.6354C18.0592 16.1 18.4021 15.7567 18.4021 15.3333V13.0333C18.4021 12.6107 18.7457 12.2667 19.1687 12.2667H28.3687ZM11.5021 4.6H13.0354C13.4592 4.6 13.8021 4.25672 13.8021 3.83333V2.3C13.8021 1.87736 14.1457 1.53333 14.5687 1.53333H23.7687C24.1918 1.53333 24.5354 1.87736 24.5354 2.3V3.83333C24.5354 4.25672 24.8783 4.6 25.3021 4.6H26.8354V6.9H25.3021C24.8783 6.9 24.5354 7.24327 24.5354 7.66667V9.96667C24.5354 10.3893 24.1918 10.7333 23.7687 10.7333H14.5687C14.1457 10.7333 13.8021 10.3893 13.8021 9.96667V7.66667C13.8021 7.24327 13.4592 6.9 13.0354 6.9H11.5021V4.6Z" fill="white"/>
<path d="M0.610711 26.2737C0.998675 26.5672 1.4931 26.656 1.95462 26.5238L9.13089 24.4731C10.5924 24.0917 10.5958 21.9064 9.13085 21.5247C9.13089 21.5247 1.95538 19.4744 1.95538 19.4744C1.01108 19.1758 -0.0268032 19.9601 0.000528437 20.9486V25.0489C0.000528437 25.5348 0.222885 25.981 0.610711 26.2737ZM1.53385 20.9486L8.70938 22.9989L1.53385 25.0489V20.9486Z" fill="white"/>
<path d="M12.4031 29.1354C12.0564 28.5365 11.3744 28.2452 10.7028 28.4152L3.46364 30.2278C2.99271 30.3453 2.61387 30.6688 2.4237 31.1157C2.23428 31.5627 2.26498 32.0606 2.50756 32.4813L4.55749 36.0332C4.82913 36.51 5.34241 36.8028 5.89017 36.7998C6.30345 36.7998 6.69502 36.6351 6.98776 36.3326L12.177 30.969C12.6584 30.4718 12.749 29.7351 12.4031 29.1354ZM5.88567 35.2665L3.83574 31.7147L11.0749 29.9028L5.88567 35.2665Z" fill="white"/>
<path d="M3.46233 15.7712L10.7022 17.5838C12.1489 17.9871 13.2585 16.0955 12.1764 15.03C12.1764 15.03 6.9872 9.66634 6.9872 9.66634C6.64954 9.31744 6.18085 9.15236 5.69719 9.21075C5.21578 9.27028 4.7995 9.54542 4.55693 9.96581L2.50699 13.5173C1.98941 14.3591 2.49712 15.5582 3.46233 15.7712ZM5.88512 10.7325L11.0863 16.0984C11.0751 16.0961 3.83518 14.2835 3.83518 14.2835L5.88512 10.7325Z" fill="white"/>
</svg>
