<svg width="42" height="47" viewBox="0 0 42 47" fill="none" xmlns="http://www.w3.org/2000/svg">
<path d="M29.18 27.8181C28.6671 27.8181 28.1673 27.8702 27.6761 27.9483V25.5367H29.2577C31.1415 25.5367 32.6741 24.0036 32.6741 22.1202C32.6741 20.2368 31.1415 18.7038 29.2577 18.7038H27.6761V11.555H29.2577C31.1415 11.555 32.6741 10.0229 32.6741 8.13948C32.6741 6.25608 31.1415 4.72306 29.2577 4.72306H27.6761V1.39755C27.6761 0.957145 27.3584 0.581171 26.9246 0.507035C22.9724 -0.169012 18.9603 -0.169012 14.9984 0.507035C14.5642 0.580288 14.2465 0.957145 14.2465 1.39755V4.72306H12.0688C10.1849 4.72306 8.65234 6.25608 8.65234 8.13948C8.65234 10.0229 10.1849 11.555 12.0688 11.555H14.2465V18.7038H12.0688C10.1849 18.7038 8.65234 20.2368 8.65234 22.1202C8.65234 24.0036 10.1849 25.5367 12.0688 25.5367H14.2465V32.6855H12.0688C10.1849 32.6855 8.65234 34.2176 8.65234 36.101C8.65234 37.9844 10.1849 39.5174 12.0688 39.5174H14.2465V43.3407C14.2465 43.6169 14.3727 43.8773 14.5885 44.0485C14.75 44.1765 14.9481 44.2444 15.1502 44.2444C15.2191 44.2444 15.2879 44.2365 15.3563 44.2206C17.5415 43.7097 19.7469 43.5049 21.9198 43.5929C23.6754 45.6424 26.2761 46.9478 29.18 46.9478C34.4538 46.9478 38.7444 42.6567 38.7444 37.3825C38.7444 32.1083 34.4538 27.8181 29.18 27.8181ZM12.0688 9.74752C11.1818 9.74752 10.4598 9.02646 10.4598 8.13948C10.4598 7.2525 11.1818 6.53056 12.0688 6.53056H15.1502C15.6493 6.53056 16.054 6.12634 16.054 5.62681V2.16891C19.3186 1.68968 22.6128 1.68968 25.8686 2.16891V5.62681C25.8686 6.12634 26.2733 6.53056 26.7723 6.53056H29.2577C30.1446 6.53056 30.8666 7.2525 30.8666 8.13948C30.8666 9.02646 30.1446 9.74752 29.2577 9.74752H26.7723C26.2733 9.74752 25.8686 10.1517 25.8686 10.6513V14.3276C22.607 13.8778 19.3156 13.8782 16.054 14.3284V10.6513C16.054 10.1517 15.6493 9.74752 15.1502 9.74752H12.0688ZM12.0688 23.7292C11.1818 23.7292 10.4598 23.0072 10.4598 22.1202C10.4598 21.2333 11.1818 20.5113 12.0688 20.5113H15.1502C15.6493 20.5113 16.054 20.1071 16.054 19.6076V16.1551C19.3145 15.6803 22.6086 15.6799 25.8686 16.1542V19.6076C25.8686 20.1071 26.2733 20.5113 26.7723 20.5113H29.2577C30.1446 20.5113 30.8666 21.2333 30.8666 22.1202C30.8666 23.0072 30.1446 23.7292 29.2577 23.7292H26.7723C26.2733 23.7292 25.8686 24.1334 25.8686 24.6329V28.0714C22.6134 27.6135 19.3215 27.6114 16.054 28.069V24.6329C16.054 24.1334 15.6493 23.7292 15.1502 23.7292H12.0688ZM16.054 42.2251V38.6137C16.054 38.1141 15.6493 37.7099 15.1502 37.7099H12.0688C11.1818 37.7099 10.4598 36.988 10.4598 36.101C10.4598 35.214 11.1818 34.493 12.0688 34.493H15.1502C15.6493 34.493 16.054 34.0887 16.054 33.5892V29.8953C18.5618 29.5249 21.086 29.4336 23.596 29.633C21.1898 31.3717 19.6152 34.1934 19.6152 37.3825C19.6152 38.9606 20.0059 40.4469 20.6855 41.7604C19.1463 41.7772 17.5968 41.931 16.054 42.2251ZM29.18 45.1403C24.9026 45.1403 21.4227 41.6603 21.4227 37.3825C21.4227 33.1056 24.9026 29.6256 29.18 29.6256C33.4574 29.6256 36.9369 33.1056 36.9369 37.3825C36.9369 41.6603 33.4574 45.1403 29.18 45.1403Z" fill="white"/>
<path d="M33.5307 36.2429H30.086V32.7983C30.086 32.2987 29.6814 31.8945 29.1823 31.8945C28.6832 31.8945 28.2785 32.2987 28.2785 32.7983V36.2429H24.8334C24.3343 36.2429 23.9297 36.6472 23.9297 37.1467C23.9297 37.6462 24.3343 38.0504 24.8334 38.0504H28.2785V41.496C28.2785 41.9955 28.6832 42.3997 29.1823 42.3997C29.6814 42.3997 30.086 41.9955 30.086 41.496V38.0504H33.5307C34.0298 38.0504 34.4345 37.6462 34.4345 37.1467C34.4345 36.6472 34.0298 36.2429 33.5307 36.2429Z" fill="white"/>
<path d="M6.94144 13.757L3.02504 11.9936C2.57008 11.7897 2.0348 11.9909 1.83004 12.4472C1.62485 12.9018 1.82784 13.4375 2.2828 13.6422L6.1992 15.4056C6.31967 15.4594 6.44587 15.485 6.56987 15.485C6.91452 15.485 7.24371 15.2873 7.39419 14.952C7.59939 14.4974 7.3964 13.9617 6.94144 13.757Z" fill="white"/>
<path d="M6.1992 23.4112L2.2828 25.1746C1.82784 25.3793 1.62485 25.915 1.83004 26.3695C1.98052 26.7049 2.30972 26.9026 2.65436 26.9026C2.77836 26.9026 2.90457 26.877 3.02504 26.8232L6.94144 25.0598C7.3964 24.8551 7.59939 24.3193 7.39419 23.8648C7.18944 23.4085 6.6546 23.2082 6.1992 23.4112Z" fill="white"/>
<path d="M5.72345 19.4077C5.72345 18.9081 5.31879 18.5039 4.8197 18.5039H0.903749C0.404657 18.5039 0 18.9081 0 19.4077C0 19.9072 0.404657 20.3114 0.903749 20.3114H4.8197C5.31879 20.3114 5.72345 19.9072 5.72345 19.4077Z" fill="white"/>
<path d="M34.7598 15.485C34.8838 15.485 35.01 15.4594 35.1305 15.4056L39.0469 13.6422C39.5019 13.4375 39.7049 12.9018 39.4997 12.4472C39.2953 11.9909 38.7596 11.7897 38.3047 11.9936L34.3883 13.757C33.9333 13.9617 33.7303 14.4974 33.9355 14.952C34.086 15.2873 34.4152 15.485 34.7598 15.485Z" fill="white"/>
<path d="M39.0469 25.1746L35.1305 23.4112C34.6755 23.2082 34.1398 23.4085 33.9355 23.8648C33.7303 24.3193 33.9333 24.8551 34.3883 25.0598L38.3047 26.8232C38.4251 26.877 38.5513 26.9026 38.6753 26.9026C39.02 26.9026 39.3492 26.7049 39.4997 26.3695C39.7049 25.915 39.5019 25.3793 39.0469 25.1746Z" fill="white"/>
<path d="M40.4252 18.5039H36.5092C36.0101 18.5039 35.6055 18.9081 35.6055 19.4077C35.6055 19.9072 36.0101 20.3114 36.5092 20.3114H40.4252C40.9243 20.3114 41.3289 19.9072 41.3289 19.4077C41.3289 18.9081 40.9243 18.5039 40.4252 18.5039Z" fill="white"/>
</svg>
